<svg class="main-svg" xmlns="http://www.w3.org/2000/svg" xmlns:xlink="http://www.w3.org/1999/xlink" width="1100" height="300" style="" viewBox="0 0 1100 300"><rect x="0" y="0" width="1100" height="300" style="fill: rgb(255, 255, 255); fill-opacity: 1;"/><defs id="defs-147a4b"><g class="clips"><clipPath id="clip147a4bxyplot" class="plotclip"><rect width="966" height="210"/></clipPath><clipPath class="axesclip" id="clip147a4bx"><rect x="114" y="0" width="966" height="300"/></clipPath><clipPath class="axesclip" id="clip147a4by"><rect x="0" y="20" width="1100" height="210"/></clipPath><clipPath class="axesclip" id="clip147a4bxy"><rect x="114" y="20" width="966" height="210"/></clipPath></g><g class="gradients"/><g class="patterns"><pattern id="p147a4b-legend-de720d" width="10px" height="10px" patternUnits="userSpaceOnUse" patternTransform="scale(0.8)"><rect width="10px" height="10px" fill="rgb(204, 102, 119)"/><path d="M5,0L5,10M0,5L10,5" opacity="0.5" stroke="#444" stroke-width="1.0557280900008408px"/></pattern><pattern id="p147a4b-de720d" width="10px" height="10px" patternUnits="userSpaceOnUse" patternTransform=""><rect width="10px" height="10px" fill="rgb(204, 102, 119)"/><path d="M5,0L5,10M0,5L10,5" opacity="0.5" stroke="#444" stroke-width="1.0557280900008408px"/></pattern></g></defs><g class="bglayer"/><g class="layer-below"><g class="imagelayer"/><g class="shapelayer"/></g><g class="cartesianlayer"><g class="subplot xy"><g class="layer-subplot"><g class="shapelayer"/><g class="imagelayer"/></g><g class="gridlayer"><g class="x"/><g class="y"><path class="ygrid crisp" transform="translate(0,219.5)" d="M114,0h966" style="stroke: rgb(170, 170, 170); stroke-opacity: 1; stroke-width: 1px;"/><path class="ygrid crisp" transform="translate(0,209)" d="M114,0h966" style="stroke: rgb(170, 170, 170); stroke-opacity: 1; stroke-width: 1px;"/><path class="ygrid crisp" transform="translate(0,198.5)" d="M114,0h966" style="stroke: rgb(170, 170, 170); stroke-opacity: 1; stroke-width: 1px;"/><path class="ygrid crisp" transform="translate(0,188)" d="M114,0h966" style="stroke: rgb(170, 170, 170); stroke-opacity: 1; stroke-width: 1px;"/><path class="ygrid crisp" transform="translate(0,177.5)" d="M114,0h966" style="stroke: rgb(170, 170, 170); stroke-opacity: 1; stroke-width: 1px;"/><path class="ygrid crisp" transform="translate(0,167)" d="M114,0h966" style="stroke: rgb(170, 170, 170); stroke-opacity: 1; stroke-width: 1px;"/><path class="ygrid crisp" transform="translate(0,156.5)" d="M114,0h966" style="stroke: rgb(170, 170, 170); stroke-opacity: 1; stroke-width: 1px;"/><path class="ygrid crisp" transform="translate(0,146)" d="M114,0h966" style="stroke: rgb(170, 170, 170); stroke-opacity: 1; stroke-width: 1px;"/><path class="ygrid crisp" transform="translate(0,135.5)" d="M114,0h966" style="stroke: rgb(170, 170, 170); stroke-opacity: 1; stroke-width: 1px;"/><path class="ygrid crisp" transform="translate(0,125)" d="M114,0h966" style="stroke: rgb(170, 170, 170); stroke-opacity: 1; stroke-width: 1px;"/><path class="ygrid crisp" transform="translate(0,114.5)" d="M114,0h966" style="stroke: rgb(170, 170, 170); stroke-opacity: 1; stroke-width: 1px;"/><path class="ygrid crisp" transform="translate(0,104)" d="M114,0h966" style="stroke: rgb(170, 170, 170); stroke-opacity: 1; stroke-width: 1px;"/><path class="ygrid crisp" transform="translate(0,93.5)" d="M114,0h966" style="stroke: rgb(170, 170, 170); stroke-opacity: 1; stroke-width: 1px;"/><path class="ygrid crisp" transform="translate(0,83)" d="M114,0h966" style="stroke: rgb(170, 170, 170); stroke-opacity: 1; stroke-width: 1px;"/><path class="ygrid crisp" transform="translate(0,72.5)" d="M114,0h966" style="stroke: rgb(170, 170, 170); stroke-opacity: 1; stroke-width: 1px;"/><path class="ygrid crisp" transform="translate(0,62)" d="M114,0h966" style="stroke: rgb(170, 170, 170); stroke-opacity: 1; stroke-width: 1px;"/><path class="ygrid crisp" transform="translate(0,51.5)" d="M114,0h966" style="stroke: rgb(170, 170, 170); stroke-opacity: 1; stroke-width: 1px;"/><path class="ygrid crisp" transform="translate(0,41)" d="M114,0h966" style="stroke: rgb(170, 170, 170); stroke-opacity: 1; stroke-width: 1px;"/><path class="ygrid crisp" transform="translate(0,30.5)" d="M114,0h966" style="stroke: rgb(170, 170, 170); stroke-opacity: 1; stroke-width: 1px;"/></g></g><g class="zerolinelayer"/><path class="xlines-below"/><path class="ylines-below"/><g class="overlines-below"/><g class="xaxislayer-below"/><g class="yaxislayer-below"/><g class="overaxes-below"/><g class="plot" transform="translate(114,20)"><g class="barlayer mlayer"><g class="trace bars" style="opacity: 1;"><g class="points"><g class="point"><path d="M4.02,210V210H156.98V210Z" clip-path="url(#clip147a4bxyplot)" style="vector-effect: non-scaling-stroke; opacity: 1; stroke-width: 2px; fill: url('#p147a4b-de720d'); stroke: rgb(0, 0, 0); stroke-opacity: 1;" class="pattern_filled"/></g><g class="point"><path d="M165.03,210V196.25H317.98V210Z" clip-path="url(#clip147a4bxyplot)" style="vector-effect: non-scaling-stroke; opacity: 1; stroke-width: 2px; fill: url('#p147a4b-de720d'); stroke: rgb(0, 0, 0); stroke-opacity: 1;" class="pattern_filled"/><text class="bartext bartext-inside" text-anchor="middle" data-notex="1" x="0" y="0" style="font-family: Arial; font-size: 16px; fill: rgb(255, 255, 255); fill-opacity: 1; white-space: pre;" transform="translate(241.505,202.11942148760332)scale(0.2049586776859504)"><tspan class="line" dy="0em" x="0" y="0"> </tspan><tspan class="line" dy="1.3em" x="0" y="0"><tspan style="font-weight:bold">6.5%</tspan></tspan></text></g><g class="point"><path d="M326.03,210V223.75H478.98V210Z" clip-path="url(#clip147a4bxyplot)" style="vector-effect: non-scaling-stroke; opacity: 1; stroke-width: 2px; fill: url('#p147a4b-de720d'); stroke: rgb(0, 0, 0); stroke-opacity: 1;" class="pattern_filled"/><text class="bartext bartext-inside" text-anchor="middle" data-notex="1" x="0" y="0" style="font-family: Arial; font-size: 16px; fill: rgb(255, 255, 255); fill-opacity: 1; white-space: pre;" transform="translate(402.505,215.86942148760332)scale(0.2049586776859504)" display="none"><tspan class="line" dy="0em" x="0" y="0"> </tspan><tspan class="line" dy="1.3em" x="0" y="0"><tspan style="font-weight:bold">-6.5%</tspan></tspan></text></g><g class="point"><path d="M487.03,210V207.84H639.98V210Z" clip-path="url(#clip147a4bxyplot)" style="vector-effect: non-scaling-stroke; opacity: 1; stroke-width: 2px; fill: url('#p147a4b-de720d'); stroke: rgb(0, 0, 0); stroke-opacity: 1;" class="pattern_filled"/><text class="bartext bartext-inside" text-anchor="middle" data-notex="1" x="0" y="0" style="font-family: Arial; font-size: 16px; fill: rgb(255, 255, 255); fill-opacity: 1; white-space: pre;" transform="translate(563.505,208.6397355371901)scale(0.05712396694214867)"><tspan class="line" dy="0em" x="0" y="0"> </tspan><tspan class="line" dy="1.3em" x="0" y="0"><tspan style="font-weight:bold">1.0%</tspan></tspan></text></g><g class="point"><path d="M648.03,210V195.56H800.98V210Z" clip-path="url(#clip147a4bxyplot)" style="vector-effect: non-scaling-stroke; opacity: 1; stroke-width: 2px; fill: url('#p147a4b-de720d'); stroke: rgb(0, 0, 0); stroke-opacity: 1;" class="pattern_filled"/><text class="bartext bartext-inside" text-anchor="middle" data-notex="1" x="0" y="0" style="font-family: Arial; font-size: 16px; fill: rgb(255, 255, 255); fill-opacity: 1; white-space: pre;" transform="translate(724.505,201.68489256198347)scale(0.22320661157024788)"><tspan class="line" dy="0em" x="0" y="0"> </tspan><tspan class="line" dy="1.3em" x="0" y="0"><tspan style="font-weight:bold">6.9%</tspan></tspan></text></g><g class="point"><path d="M809.03,210V197.5H961.98V210Z" clip-path="url(#clip147a4bxyplot)" style="vector-effect: non-scaling-stroke; opacity: 1; stroke-width: 2px; fill: url('#p147a4b-de720d'); stroke: rgb(0, 0, 0); stroke-opacity: 1;" class="pattern_filled"/><text class="bartext bartext-inside" text-anchor="middle" data-notex="1" x="0" y="0" style="font-family: Arial; font-size: 16px; fill: rgb(255, 255, 255); fill-opacity: 1; white-space: pre;" transform="translate(885.505,202.90661157024795)scale(0.171900826446281)"><tspan class="line" dy="0em" x="0" y="0"> </tspan><tspan class="line" dy="1.3em" x="0" y="0"><tspan style="font-weight:bold">6.0%</tspan></tspan></text></g><g class="point"><path d="M4.02,210V210H156.98V210Z" clip-path="url(#clip147a4bxyplot)" class="pattern_filled" style="vector-effect: non-scaling-stroke; opacity: 1; stroke-width: 2px; fill: url('#p147a4b-de720d'); stroke: rgb(0, 0, 0); stroke-opacity: 1;"/></g><g class="point"><path d="M165.03,196.25V151.82H317.98V196.25Z" clip-path="url(#clip147a4bxyplot)" class="pattern_filled" style="vector-effect: non-scaling-stroke; opacity: 1; stroke-width: 2px; fill: url('#p147a4b-de720d'); stroke: rgb(0, 0, 0); stroke-opacity: 1;"/></g><g class="point"><path d="M326.03,210V110.9H478.98V210Z" clip-path="url(#clip147a4bxyplot)" class="pattern_filled" style="vector-effect: non-scaling-stroke; opacity: 1; stroke-width: 2px; fill: url('#p147a4b-de720d'); stroke: rgb(0, 0, 0); stroke-opacity: 1;"/></g><g class="point"><path d="M487.03,207.84V76.95H639.98V207.84Z" clip-path="url(#clip147a4bxyplot)" class="pattern_filled" style="vector-effect: non-scaling-stroke; opacity: 1; stroke-width: 2px; fill: url('#p147a4b-de720d'); stroke: rgb(0, 0, 0); stroke-opacity: 1;"/></g><g class="point"><path d="M648.03,195.56V42.99H800.98V195.56Z" clip-path="url(#clip147a4bxyplot)" class="pattern_filled" style="vector-effect: non-scaling-stroke; opacity: 1; stroke-width: 2px; fill: url('#p147a4b-de720d'); stroke: rgb(0, 0, 0); stroke-opacity: 1;"/></g><g class="point"><path d="M809.03,197.5V33.69H961.98V197.5Z" clip-path="url(#clip147a4bxyplot)" class="pattern_filled" style="vector-effect: non-scaling-stroke; opacity: 1; stroke-width: 2px; fill: url('#p147a4b-de720d'); stroke: rgb(0, 0, 0); stroke-opacity: 1;"/></g></g><g class="errorbar" clip-path="url(#clip147a4bxyplot)" style="opacity: 1;"><path class="yerror" d="M76.5,210h8m-4,0V210m-4,0h8" style="vector-effect: non-scaling-stroke; stroke-width: 2px; stroke: rgb(36, 36, 36); stroke-opacity: 1;"/></g><g class="errorbar" clip-path="url(#clip147a4bxyplot)" style="opacity: 1;"><path class="yerror" d="M237.5,189.49h8m-4,0V203.02m-4,0h8" style="vector-effect: non-scaling-stroke; stroke-width: 2px; stroke: rgb(36, 36, 36); stroke-opacity: 1;"/></g><g class="errorbar" clip-path="url(#clip147a4bxyplot)" style="opacity: 1;"><path class="yerror" d="M398.5,185.55h8m-4,0V261.95m-4,0h8" style="vector-effect: non-scaling-stroke; stroke-width: 2px; stroke: rgb(36, 36, 36); stroke-opacity: 1;"/></g><g class="errorbar" clip-path="url(#clip147a4bxyplot)" style="opacity: 1;"><path class="yerror" d="M559.5,167.28h8m-4,0V248.4m-4,0h8" style="vector-effect: non-scaling-stroke; stroke-width: 2px; stroke: rgb(36, 36, 36); stroke-opacity: 1;"/></g><g class="errorbar" clip-path="url(#clip147a4bxyplot)" style="opacity: 1;"><path class="yerror" d="M720.5,141.58h8m-4,0V249.53m-4,0h8" style="vector-effect: non-scaling-stroke; stroke-width: 2px; stroke: rgb(36, 36, 36); stroke-opacity: 1;"/></g><g class="errorbar" clip-path="url(#clip147a4bxyplot)" style="opacity: 1;"><path class="yerror" d="M881.5,142.23h8m-4,0V252.77m-4,0h8" style="vector-effect: non-scaling-stroke; stroke-width: 2px; stroke: rgb(36, 36, 36); stroke-opacity: 1;"/></g><g class="errorbar" clip-path="url(#clip147a4bxyplot)" style="opacity: 1;"><path class="yerror" d="M76.5,210h8m-4,0V210m-4,0h8" style="vector-effect: non-scaling-stroke; stroke-width: 2px; stroke: rgb(36, 36, 36); stroke-opacity: 1;"/></g><g class="errorbar" clip-path="url(#clip147a4bxyplot)" style="opacity: 1;"><path class="yerror" d="M237.5,143.4h8m-4,0V160.24m-4,0h8" style="vector-effect: non-scaling-stroke; stroke-width: 2px; stroke: rgb(36, 36, 36); stroke-opacity: 1;"/></g><g class="errorbar" clip-path="url(#clip147a4bxyplot)" style="opacity: 1;"><path class="yerror" d="M398.5,103.42h8m-4,0V118.38m-4,0h8" style="vector-effect: non-scaling-stroke; stroke-width: 2px; stroke: rgb(36, 36, 36); stroke-opacity: 1;"/></g><g class="errorbar" clip-path="url(#clip147a4bxyplot)" style="opacity: 1;"><path class="yerror" d="M559.5,72.49h8m-4,0V81.42m-4,0h8" style="vector-effect: non-scaling-stroke; stroke-width: 2px; stroke: rgb(36, 36, 36); stroke-opacity: 1;"/></g><g class="errorbar" clip-path="url(#clip147a4bxyplot)" style="opacity: 1;"><path class="yerror" d="M720.5,39.79h8m-4,0V46.19m-4,0h8" style="vector-effect: non-scaling-stroke; stroke-width: 2px; stroke: rgb(36, 36, 36); stroke-opacity: 1;"/></g><g class="errorbar" clip-path="url(#clip147a4bxyplot)" style="opacity: 1;"><path class="yerror" d="M881.5,28.56h8m-4,0V38.81m-4,0h8" style="vector-effect: non-scaling-stroke; stroke-width: 2px; stroke: rgb(36, 36, 36); stroke-opacity: 1;"/></g></g></g></g><g class="overplot"/><path class="xlines-above crisp" d="M112,231H1082M112,19H1082" style="fill: none; stroke-width: 2px; stroke: rgb(36, 36, 36); stroke-opacity: 1;"/><path class="ylines-above crisp" d="M113,20V230M1081,20V230" style="fill: none; stroke-width: 2px; stroke: rgb(36, 36, 36); stroke-opacity: 1;"/><g class="overlines-above"/><g class="xaxislayer-above"><path class="xtick ticks crisp" d="M0,232v5" transform="translate(194.5,0)" style="stroke: rgb(68, 68, 68); stroke-opacity: 1; stroke-width: 1px;"/><path class="xtick ticks crisp" d="M0,232v5" transform="translate(355.5,0)" style="stroke: rgb(68, 68, 68); stroke-opacity: 1; stroke-width: 1px;"/><path class="xtick ticks crisp" d="M0,232v5" transform="translate(516.5,0)" style="stroke: rgb(68, 68, 68); stroke-opacity: 1; stroke-width: 1px;"/><path class="xtick ticks crisp" d="M0,232v5" transform="translate(677.5,0)" style="stroke: rgb(68, 68, 68); stroke-opacity: 1; stroke-width: 1px;"/><path class="xtick ticks crisp" d="M0,232v5" transform="translate(838.5,0)" style="stroke: rgb(68, 68, 68); stroke-opacity: 1; stroke-width: 1px;"/><path class="xtick ticks crisp" d="M0,232v5" transform="translate(999.5,0)" style="stroke: rgb(68, 68, 68); stroke-opacity: 1; stroke-width: 1px;"/><g class="xtick"><text text-anchor="middle" x="0" y="256.2" transform="translate(194.5,0)" style="font-family: Arial; font-size: 16px; fill: rgb(0, 0, 0); fill-opacity: 1; white-space: pre; opacity: 1;">At 0mmHg</text></g><g class="xtick"><text text-anchor="middle" x="0" y="256.2" style="font-family: Arial; font-size: 16px; fill: rgb(0, 0, 0); fill-opacity: 1; white-space: pre; opacity: 1;" transform="translate(355.5,0)">At 40mmHg</text></g><g class="xtick"><text text-anchor="middle" x="0" y="256.2" style="font-family: Arial; font-size: 16px; fill: rgb(0, 0, 0); fill-opacity: 1; white-space: pre; opacity: 1;" transform="translate(516.5,0)">At 80mmHg</text></g><g class="xtick"><text text-anchor="middle" x="0" y="256.2" style="font-family: Arial; font-size: 16px; fill: rgb(0, 0, 0); fill-opacity: 1; white-space: pre; opacity: 1;" transform="translate(677.5,0)">At 120mmHg</text></g><g class="xtick"><text text-anchor="middle" x="0" y="256.2" style="font-family: Arial; font-size: 16px; fill: rgb(0, 0, 0); fill-opacity: 1; white-space: pre; opacity: 1;" transform="translate(838.5,0)">At 160mmHg</text></g><g class="xtick"><text text-anchor="middle" x="0" y="256.2" style="font-family: Arial; font-size: 16px; fill: rgb(0, 0, 0); fill-opacity: 1; white-space: pre; opacity: 1;" transform="translate(999.5,0)">At 200mmHg</text></g></g><g class="yaxislayer-above"><path class="ytick ticks crisp" d="M112,0h-5" transform="translate(0,230)" style="stroke: rgb(68, 68, 68); stroke-opacity: 1; stroke-width: 2px;"/><path class="ytick ticks crisp" d="M112,0h-5" transform="translate(0,219.5)" style="stroke: rgb(68, 68, 68); stroke-opacity: 1; stroke-width: 2px;"/><path class="ytick ticks crisp" d="M112,0h-5" transform="translate(0,209)" style="stroke: rgb(68, 68, 68); stroke-opacity: 1; stroke-width: 2px;"/><path class="ytick ticks crisp" d="M112,0h-5" transform="translate(0,198.5)" style="stroke: rgb(68, 68, 68); stroke-opacity: 1; stroke-width: 2px;"/><path class="ytick ticks crisp" d="M112,0h-5" transform="translate(0,188)" style="stroke: rgb(68, 68, 68); stroke-opacity: 1; stroke-width: 2px;"/><path class="ytick ticks crisp" d="M112,0h-5" transform="translate(0,177.5)" style="stroke: rgb(68, 68, 68); stroke-opacity: 1; stroke-width: 2px;"/><path class="ytick ticks crisp" d="M112,0h-5" transform="translate(0,167)" style="stroke: rgb(68, 68, 68); stroke-opacity: 1; stroke-width: 2px;"/><path class="ytick ticks crisp" d="M112,0h-5" transform="translate(0,156.5)" style="stroke: rgb(68, 68, 68); stroke-opacity: 1; stroke-width: 2px;"/><path class="ytick ticks crisp" d="M112,0h-5" transform="translate(0,146)" style="stroke: rgb(68, 68, 68); stroke-opacity: 1; stroke-width: 2px;"/><path class="ytick ticks crisp" d="M112,0h-5" transform="translate(0,135.5)" style="stroke: rgb(68, 68, 68); stroke-opacity: 1; stroke-width: 2px;"/><path class="ytick ticks crisp" d="M112,0h-5" transform="translate(0,125)" style="stroke: rgb(68, 68, 68); stroke-opacity: 1; stroke-width: 2px;"/><path class="ytick ticks crisp" d="M112,0h-5" transform="translate(0,114.5)" style="stroke: rgb(68, 68, 68); stroke-opacity: 1; stroke-width: 2px;"/><path class="ytick ticks crisp" d="M112,0h-5" transform="translate(0,104)" style="stroke: rgb(68, 68, 68); stroke-opacity: 1; stroke-width: 2px;"/><path class="ytick ticks crisp" d="M112,0h-5" transform="translate(0,93.5)" style="stroke: rgb(68, 68, 68); stroke-opacity: 1; stroke-width: 2px;"/><path class="ytick ticks crisp" d="M112,0h-5" transform="translate(0,83)" style="stroke: rgb(68, 68, 68); stroke-opacity: 1; stroke-width: 2px;"/><path class="ytick ticks crisp" d="M112,0h-5" transform="translate(0,72.5)" style="stroke: rgb(68, 68, 68); stroke-opacity: 1; stroke-width: 2px;"/><path class="ytick ticks crisp" d="M112,0h-5" transform="translate(0,62)" style="stroke: rgb(68, 68, 68); stroke-opacity: 1; stroke-width: 2px;"/><path class="ytick ticks crisp" d="M112,0h-5" transform="translate(0,51.5)" style="stroke: rgb(68, 68, 68); stroke-opacity: 1; stroke-width: 2px;"/><path class="ytick ticks crisp" d="M112,0h-5" transform="translate(0,41)" style="stroke: rgb(68, 68, 68); stroke-opacity: 1; stroke-width: 2px;"/><path class="ytick ticks crisp" d="M112,0h-5" transform="translate(0,30.5)" style="stroke: rgb(68, 68, 68); stroke-opacity: 1; stroke-width: 2px;"/><path class="ytick ticks crisp" d="M112,0h-5" transform="translate(0,20)" style="stroke: rgb(68, 68, 68); stroke-opacity: 1; stroke-width: 2px;"/><g class="ytick"><text text-anchor="end" x="103.8" y="5.6" transform="translate(0,230)" style="font-family: Arial; font-size: 16px; fill: rgb(0, 0, 0); fill-opacity: 1; white-space: pre; opacity: 1;">0%</text></g><g class="ytick"><text text-anchor="end" x="103.8" y="5.6" style="font-family: Arial; font-size: 16px; fill: rgb(0, 0, 0); fill-opacity: 1; white-space: pre; opacity: 1;" transform="translate(0,219.5)"> </text></g><g class="ytick"><text text-anchor="end" x="103.8" y="5.6" style="font-family: Arial; font-size: 16px; fill: rgb(0, 0, 0); fill-opacity: 1; white-space: pre; opacity: 1;" transform="translate(0,209)"> </text></g><g class="ytick"><text text-anchor="end" x="103.8" y="5.6" style="font-family: Arial; font-size: 16px; fill: rgb(0, 0, 0); fill-opacity: 1; white-space: pre; opacity: 1;" transform="translate(0,198.5)"> </text></g><g class="ytick"><text text-anchor="end" x="103.8" y="5.6" style="font-family: Arial; font-size: 16px; fill: rgb(0, 0, 0); fill-opacity: 1; white-space: pre; opacity: 1;" transform="translate(0,188)">20%</text></g><g class="ytick"><text text-anchor="end" x="103.8" y="5.6" style="font-family: Arial; font-size: 16px; fill: rgb(0, 0, 0); fill-opacity: 1; white-space: pre; opacity: 1;" transform="translate(0,177.5)"> </text></g><g class="ytick"><text text-anchor="end" x="103.8" y="5.6" style="font-family: Arial; font-size: 16px; fill: rgb(0, 0, 0); fill-opacity: 1; white-space: pre; opacity: 1;" transform="translate(0,167)"> </text></g><g class="ytick"><text text-anchor="end" x="103.8" y="5.6" style="font-family: Arial; font-size: 16px; fill: rgb(0, 0, 0); fill-opacity: 1; white-space: pre; opacity: 1;" transform="translate(0,156.5)"> </text></g><g class="ytick"><text text-anchor="end" x="103.8" y="5.6" style="font-family: Arial; font-size: 16px; fill: rgb(0, 0, 0); fill-opacity: 1; white-space: pre; opacity: 1;" transform="translate(0,146)">40%</text></g><g class="ytick"><text text-anchor="end" x="103.8" y="5.6" style="font-family: Arial; font-size: 16px; fill: rgb(0, 0, 0); fill-opacity: 1; white-space: pre; opacity: 1;" transform="translate(0,135.5)"> </text></g><g class="ytick"><text text-anchor="end" x="103.8" y="5.6" style="font-family: Arial; font-size: 16px; fill: rgb(0, 0, 0); fill-opacity: 1; white-space: pre; opacity: 1;" transform="translate(0,125)"> </text></g><g class="ytick"><text text-anchor="end" x="103.8" y="5.6" style="font-family: Arial; font-size: 16px; fill: rgb(0, 0, 0); fill-opacity: 1; white-space: pre; opacity: 1;" transform="translate(0,114.5)"> </text></g><g class="ytick"><text text-anchor="end" x="103.8" y="5.6" style="font-family: Arial; font-size: 16px; fill: rgb(0, 0, 0); fill-opacity: 1; white-space: pre; opacity: 1;" transform="translate(0,104)">60%</text></g><g class="ytick"><text text-anchor="end" x="103.8" y="5.6" style="font-family: Arial; font-size: 16px; fill: rgb(0, 0, 0); fill-opacity: 1; white-space: pre; opacity: 1;" transform="translate(0,93.5)"> </text></g><g class="ytick"><text text-anchor="end" x="103.8" y="5.6" style="font-family: Arial; font-size: 16px; fill: rgb(0, 0, 0); fill-opacity: 1; white-space: pre; opacity: 1;" transform="translate(0,83)"> </text></g><g class="ytick"><text text-anchor="end" x="103.8" y="5.6" style="font-family: Arial; font-size: 16px; fill: rgb(0, 0, 0); fill-opacity: 1; white-space: pre; opacity: 1;" transform="translate(0,72.5)"> </text></g><g class="ytick"><text text-anchor="end" x="103.8" y="5.6" style="font-family: Arial; font-size: 16px; fill: rgb(0, 0, 0); fill-opacity: 1; white-space: pre; opacity: 1;" transform="translate(0,62)">80%</text></g><g class="ytick"><text text-anchor="end" x="103.8" y="5.6" style="font-family: Arial; font-size: 16px; fill: rgb(0, 0, 0); fill-opacity: 1; white-space: pre; opacity: 1;" transform="translate(0,51.5)"> </text></g><g class="ytick"><text text-anchor="end" x="103.8" y="5.6" style="font-family: Arial; font-size: 16px; fill: rgb(0, 0, 0); fill-opacity: 1; white-space: pre; opacity: 1;" transform="translate(0,41)"> </text></g><g class="ytick"><text text-anchor="end" x="103.8" y="5.6" style="font-family: Arial; font-size: 16px; fill: rgb(0, 0, 0); fill-opacity: 1; white-space: pre; opacity: 1;" transform="translate(0,30.5)"> </text></g><g class="ytick"><text text-anchor="end" x="103.8" y="5.6" style="font-family: Arial; font-size: 16px; fill: rgb(0, 0, 0); fill-opacity: 1; white-space: pre; opacity: 1;" transform="translate(0,20)">100%</text></g></g><g class="overaxes-above"/></g></g><g class="polarlayer"/><g class="smithlayer"/><g class="ternarylayer"/><g class="geolayer"/><g class="funnelarealayer"/><g class="pielayer"/><g class="iciclelayer"/><g class="treemaplayer"/><g class="sunburstlayer"/><g class="glimages"/><defs id="topdefs-147a4b"><g class="clips"/><clipPath id="legend147a4b"><rect width="88" height="59" x="2" y="2"/></clipPath></defs><g class="layer-above"><g class="imagelayer"/><g class="shapelayer"/></g><g class="infolayer"><g class="legend" pointer-events="all" transform="translate(145.28,93.5)"><rect class="bg" shape-rendering="crispEdges" width="90" height="61" x="1" y="1" style="stroke: rgb(0, 0, 0); stroke-opacity: 1; fill: rgb(255, 255, 255); fill-opacity: 1; stroke-width: 2px;"/><g class="scrollbox" transform="" clip-path="url(#legend147a4b)"><text class="legendtitletext" text-anchor="start" x="4" y="26.7" style="font-family: 'Arial Black'; font-size: 19px; fill: rgb(0, 0, 0); fill-opacity: 1; white-space: pre;">Glove Size</text><g class="groups" transform=""><g class="traces" transform="translate(2,43.6)" style="opacity: 1;"><text class="legendtext" text-anchor="start" x="40" y="6.24" style="font-family: Arial; font-size: 16px; fill: rgb(0, 0, 0); fill-opacity: 1; white-space: pre;">M</text><g class="layers" style="opacity: 1;"><g class="legendfill"/><g class="legendlines"/><g class="legendsymbols"><g class="legendpoints"><path class="legendundefined pattern_filled" d="M6,6H-6V-6H6Z" transform="translate(20,0)" style="stroke-width: 2px; fill: url('#p147a4b-legend-de720d'); stroke: rgb(0, 0, 0); stroke-opacity: 1;"/></g></g></g><rect class="legendtoggle" x="0" y="-11.9" width="53.328125" height="23.8" style="fill: rgb(0, 0, 0); fill-opacity: 0;"/></g></g></g><rect class="scrollbar" rx="20" ry="3" width="0" height="0" x="0" y="0" style="fill: rgb(128, 139, 164); fill-opacity: 1;"/></g><g class="g-gtitle"><text class="gtitle" x="550" y="0" text-anchor="middle" dy="0.7em" style="font-family: Arial; font-size: 16px; fill: rgb(0, 0, 0); opacity: 1; font-weight: normal; white-space: pre;">Varying Glove Size with Glove Size=M, Glove Method=Middle</text></g><g class="g-xtitle"><text class="xtitle" x="597" y="288.203125" text-anchor="middle" style="font-family: 'Arial Black'; font-size: 20px; fill: rgb(0, 0, 0); opacity: 1; font-weight: normal; white-space: pre;">Applied Circumferential Pressure (mmHg)</text></g><g class="g-ytitle" transform="translate(4.125,0)"><text class="ytitle" transform="rotate(-90,11.875,125)" x="11.875" y="125" text-anchor="middle" style="font-family: 'Arial Black'; font-size: 18px; fill: rgb(0, 0, 0); opacity: 1; font-weight: normal; white-space: pre;"><tspan class="line" dy="0em" x="11.875" y="125">Relative Inward Creep </tspan><tspan class="line" dy="1.3em" x="11.875" y="125"> Into Field of View (S.E.)</tspan></text></g></g></svg>