<svg class="main-svg" xmlns="http://www.w3.org/2000/svg" xmlns:xlink="http://www.w3.org/1999/xlink" width="4400" height="1200" style="" viewBox="0 0 1100 300"><rect x="0" y="0" width="1100" height="300" style="fill: rgb(255, 255, 255); fill-opacity: 1;"/><defs id="defs-a8266b"><g class="clips"><clipPath id="clipa8266bxyplot" class="plotclip"><rect width="966" height="210"/></clipPath><clipPath class="axesclip" id="clipa8266bx"><rect x="114" y="0" width="966" height="300"/></clipPath><clipPath class="axesclip" id="clipa8266by"><rect x="0" y="20" width="1100" height="210"/></clipPath><clipPath class="axesclip" id="clipa8266bxy"><rect x="114" y="20" width="966" height="210"/></clipPath></g><g class="gradients"/><g class="patterns"><pattern id="pa8266b-legend-209bd9" width="14.142135623730951px" height="14.142135623730951px" patternUnits="userSpaceOnUse" patternTransform="scale(0.8)"><rect width="14.142135623730951px" height="14.142135623730951px" fill="rgb(136, 204, 238)"/><path d="M-3.5355339059327378,3.5355339059327378l7.0710678118654755,-7.0710678118654755M0,14.142135623730951L14.142135623730951,0M10.606601717798213,17.67766952966369l7.0710678118654755,-7.0710678118654755" opacity="0.5" stroke="#444" stroke-width="2px"/></pattern><pattern id="pa8266b-legend-aff5ca" width="10px" height="10px" patternUnits="userSpaceOnUse" patternTransform="scale(0.8)"><rect width="10px" height="10px" fill="rgb(204, 102, 119)"/><path d="M5,0L5,10M0,5L10,5" opacity="0.5" stroke="#444" stroke-width="1.0557280900008408px"/></pattern><pattern id="pa8266b-legend-b328a2" width="14.142135623730951px" height="14.142135623730951px" patternUnits="userSpaceOnUse" patternTransform="scale(0.8)"><rect width="14.142135623730951px" height="14.142135623730951px" fill="rgb(221, 204, 119)"/><path d="M10.606601717798213,-3.5355339059327378l7.0710678118654755,7.0710678118654755M0,0L14.142135623730951,14.142135623730951M-3.5355339059327378,10.606601717798213l7.0710678118654755,7.0710678118654755" opacity="0.5" stroke="#444" stroke-width="2px"/></pattern><pattern id="pa8266b-209bd9" width="14.142135623730951px" height="14.142135623730951px" patternUnits="userSpaceOnUse" patternTransform=""><rect width="14.142135623730951px" height="14.142135623730951px" fill="rgb(136, 204, 238)"/><path d="M-3.5355339059327378,3.5355339059327378l7.0710678118654755,-7.0710678118654755M0,14.142135623730951L14.142135623730951,0M10.606601717798213,17.67766952966369l7.0710678118654755,-7.0710678118654755" opacity="0.5" stroke="#444" stroke-width="2px"/></pattern><pattern id="pa8266b-aff5ca" width="10px" height="10px" patternUnits="userSpaceOnUse" patternTransform=""><rect width="10px" height="10px" fill="rgb(204, 102, 119)"/><path d="M5,0L5,10M0,5L10,5" opacity="0.5" stroke="#444" stroke-width="1.0557280900008408px"/></pattern><pattern id="pa8266b-b328a2" width="14.142135623730951px" height="14.142135623730951px" patternUnits="userSpaceOnUse" patternTransform=""><rect width="14.142135623730951px" height="14.142135623730951px" fill="rgb(221, 204, 119)"/><path d="M10.606601717798213,-3.5355339059327378l7.0710678118654755,7.0710678118654755M0,0L14.142135623730951,14.142135623730951M-3.5355339059327378,10.606601717798213l7.0710678118654755,7.0710678118654755" opacity="0.5" stroke="#444" stroke-width="2px"/></pattern></g></defs><g class="bglayer"/><g class="layer-below"><g class="imagelayer"/><g class="shapelayer"/></g><g class="cartesianlayer"><g class="subplot xy"><g class="layer-subplot"><g class="shapelayer"/><g class="imagelayer"/></g><g class="gridlayer"><g class="x"/><g class="y"><path class="ygrid crisp" transform="translate(0,219.5)" d="M114,0h966" style="stroke: rgb(170, 170, 170); stroke-opacity: 1; stroke-width: 1px;"/><path class="ygrid crisp" transform="translate(0,209)" d="M114,0h966" style="stroke: rgb(170, 170, 170); stroke-opacity: 1; stroke-width: 1px;"/><path class="ygrid crisp" transform="translate(0,198.5)" d="M114,0h966" style="stroke: rgb(170, 170, 170); stroke-opacity: 1; stroke-width: 1px;"/><path class="ygrid crisp" transform="translate(0,188)" d="M114,0h966" style="stroke: rgb(170, 170, 170); stroke-opacity: 1; stroke-width: 1px;"/><path class="ygrid crisp" transform="translate(0,177.5)" d="M114,0h966" style="stroke: rgb(170, 170, 170); stroke-opacity: 1; stroke-width: 1px;"/><path class="ygrid crisp" transform="translate(0,167)" d="M114,0h966" style="stroke: rgb(170, 170, 170); stroke-opacity: 1; stroke-width: 1px;"/><path class="ygrid crisp" transform="translate(0,156.5)" d="M114,0h966" style="stroke: rgb(170, 170, 170); stroke-opacity: 1; stroke-width: 1px;"/><path class="ygrid crisp" transform="translate(0,146)" d="M114,0h966" style="stroke: rgb(170, 170, 170); stroke-opacity: 1; stroke-width: 1px;"/><path class="ygrid crisp" transform="translate(0,135.5)" d="M114,0h966" style="stroke: rgb(170, 170, 170); stroke-opacity: 1; stroke-width: 1px;"/><path class="ygrid crisp" transform="translate(0,125)" d="M114,0h966" style="stroke: rgb(170, 170, 170); stroke-opacity: 1; stroke-width: 1px;"/><path class="ygrid crisp" transform="translate(0,114.5)" d="M114,0h966" style="stroke: rgb(170, 170, 170); stroke-opacity: 1; stroke-width: 1px;"/><path class="ygrid crisp" transform="translate(0,104)" d="M114,0h966" style="stroke: rgb(170, 170, 170); stroke-opacity: 1; stroke-width: 1px;"/><path class="ygrid crisp" transform="translate(0,93.5)" d="M114,0h966" style="stroke: rgb(170, 170, 170); stroke-opacity: 1; stroke-width: 1px;"/><path class="ygrid crisp" transform="translate(0,83)" d="M114,0h966" style="stroke: rgb(170, 170, 170); stroke-opacity: 1; stroke-width: 1px;"/><path class="ygrid crisp" transform="translate(0,72.5)" d="M114,0h966" style="stroke: rgb(170, 170, 170); stroke-opacity: 1; stroke-width: 1px;"/><path class="ygrid crisp" transform="translate(0,62)" d="M114,0h966" style="stroke: rgb(170, 170, 170); stroke-opacity: 1; stroke-width: 1px;"/><path class="ygrid crisp" transform="translate(0,51.5)" d="M114,0h966" style="stroke: rgb(170, 170, 170); stroke-opacity: 1; stroke-width: 1px;"/><path class="ygrid crisp" transform="translate(0,41)" d="M114,0h966" style="stroke: rgb(170, 170, 170); stroke-opacity: 1; stroke-width: 1px;"/><path class="ygrid crisp" transform="translate(0,30.5)" d="M114,0h966" style="stroke: rgb(170, 170, 170); stroke-opacity: 1; stroke-width: 1px;"/></g></g><g class="zerolinelayer"/><path class="xlines-below"/><path class="ylines-below"/><g class="overlines-below"/><g class="xaxislayer-below"/><g class="yaxislayer-below"/><g class="overaxes-below"/><g class="plot" transform="translate(114,20)"><g class="barlayer mlayer"><g class="trace bars" style="opacity: 1;"><g class="points"><g class="point"><path d="M4.02,210V210H42.26V210Z" clip-path="url(#clipa8266bxyplot)" class="pattern_filled" style="vector-effect: non-scaling-stroke; opacity: 1; stroke-width: 2px; fill: url('#pa8266b-209bd9'); stroke: rgb(0, 0, 0); stroke-opacity: 1;"/></g><g class="point"><path d="M165.03,210V139.9H203.26V210Z" clip-path="url(#clipa8266bxyplot)" class="pattern_filled" style="vector-effect: non-scaling-stroke; opacity: 1; stroke-width: 2px; fill: url('#pa8266b-209bd9'); stroke: rgb(0, 0, 0); stroke-opacity: 1;"/><text class="bartext bartext-inside" text-anchor="middle" data-notex="1" x="0" y="0" style="font-family: Arial; font-size: 16px; fill: rgb(255, 255, 255); fill-opacity: 1; white-space: pre;" transform="translate(184.14499999999998,152.84424242424242)scale(0.7103030303030301)"><tspan class="line" dy="0em" x="0" y="0"> </tspan><tspan class="line" dy="1.3em" x="0" y="0"><tspan style="font-weight:bold">33.4%</tspan></tspan></text></g><g class="point"><path d="M326.03,210V97.92H364.26V210Z" clip-path="url(#clipa8266bxyplot)" class="pattern_filled" style="vector-effect: non-scaling-stroke; opacity: 1; stroke-width: 2px; fill: url('#pa8266b-209bd9'); stroke: rgb(0, 0, 0); stroke-opacity: 1;"/><text class="bartext bartext-inside" text-anchor="middle" data-notex="1" x="0" y="0" style="font-family: Arial; font-size: 16px; fill: rgb(255, 255, 255); fill-opacity: 1; white-space: pre;" transform="translate(345.145,110.86424242424243)scale(0.7103030303030307)"><tspan class="line" dy="0em" x="0" y="0"> </tspan><tspan class="line" dy="1.3em" x="0" y="0"><tspan style="font-weight:bold">53.4%</tspan></tspan></text></g><g class="point"><path d="M487.03,210V61.06H525.26V210Z" clip-path="url(#clipa8266bxyplot)" class="pattern_filled" style="vector-effect: non-scaling-stroke; opacity: 1; stroke-width: 2px; fill: url('#pa8266b-209bd9'); stroke: rgb(0, 0, 0); stroke-opacity: 1;"/><text class="bartext bartext-inside" text-anchor="middle" data-notex="1" x="0" y="0" style="font-family: Arial; font-size: 16px; fill: rgb(255, 255, 255); fill-opacity: 1; white-space: pre;" transform="translate(506.145,74.00424242424243)scale(0.7103030303030307)"><tspan class="line" dy="0em" x="0" y="0"> </tspan><tspan class="line" dy="1.3em" x="0" y="0"><tspan style="font-weight:bold">70.9%</tspan></tspan></text></g><g class="point"><path d="M648.03,210V44.49H686.26V210Z" clip-path="url(#clipa8266bxyplot)" class="pattern_filled" style="vector-effect: non-scaling-stroke; opacity: 1; stroke-width: 2px; fill: url('#pa8266b-209bd9'); stroke: rgb(0, 0, 0); stroke-opacity: 1;"/><text class="bartext bartext-inside" text-anchor="middle" data-notex="1" x="0" y="0" style="font-family: Arial; font-size: 16px; fill: rgb(255, 255, 255); fill-opacity: 1; white-space: pre;" transform="translate(667.145,57.43424242424243)scale(0.7103030303030307)"><tspan class="line" dy="0em" x="0" y="0"> </tspan><tspan class="line" dy="1.3em" x="0" y="0"><tspan style="font-weight:bold">78.8%</tspan></tspan></text></g><g class="point"><path d="M809.03,210V31.38H847.26V210Z" clip-path="url(#clipa8266bxyplot)" class="pattern_filled" style="vector-effect: non-scaling-stroke; opacity: 1; stroke-width: 2px; fill: url('#pa8266b-209bd9'); stroke: rgb(0, 0, 0); stroke-opacity: 1;"/><text class="bartext bartext-inside" text-anchor="middle" data-notex="1" x="0" y="0" style="font-family: Arial; font-size: 16px; fill: rgb(255, 255, 255); fill-opacity: 1; white-space: pre;" transform="translate(828.145,44.32424242424243)scale(0.7103030303030307)"><tspan class="line" dy="0em" x="0" y="0"> </tspan><tspan class="line" dy="1.3em" x="0" y="0"><tspan style="font-weight:bold">85.1%</tspan></tspan></text></g></g><g class="errorbar" clip-path="url(#clipa8266bxyplot)" style="opacity: 1;"><path class="yerror" d="M19.14,210h8m-4,0V210m-4,0h8" style="vector-effect: non-scaling-stroke; stroke-width: 2px; stroke: rgb(36, 36, 36); stroke-opacity: 1;"/></g><g class="errorbar" clip-path="url(#clipa8266bxyplot)" style="opacity: 1;"><path class="yerror" d="M180.14,121.91h8m-4,0V157.88m-4,0h8" style="vector-effect: non-scaling-stroke; stroke-width: 2px; stroke: rgb(36, 36, 36); stroke-opacity: 1;"/></g><g class="errorbar" clip-path="url(#clipa8266bxyplot)" style="opacity: 1;"><path class="yerror" d="M341.14,81.06h8m-4,0V114.77m-4,0h8" style="vector-effect: non-scaling-stroke; stroke-width: 2px; stroke: rgb(36, 36, 36); stroke-opacity: 1;"/></g><g class="errorbar" clip-path="url(#clipa8266bxyplot)" style="opacity: 1;"><path class="yerror" d="M502.14,39.05h8m-4,0V83.06m-4,0h8" style="vector-effect: non-scaling-stroke; stroke-width: 2px; stroke: rgb(36, 36, 36); stroke-opacity: 1;"/></g><g class="errorbar" clip-path="url(#clipa8266bxyplot)" style="opacity: 1;"><path class="yerror" d="M663.14,24.52h8m-4,0V64.46m-4,0h8" style="vector-effect: non-scaling-stroke; stroke-width: 2px; stroke: rgb(36, 36, 36); stroke-opacity: 1;"/></g><g class="errorbar" clip-path="url(#clipa8266bxyplot)" style="opacity: 1;"><path class="yerror" d="M824.14,13.74h8m-4,0V49.02m-4,0h8" style="vector-effect: non-scaling-stroke; stroke-width: 2px; stroke: rgb(36, 36, 36); stroke-opacity: 1;"/></g></g><g class="trace bars" style="opacity: 1;"><g class="points"><g class="point"><path d="M42.26,210V210H80.5V210Z" clip-path="url(#clipa8266bxyplot)" class="pattern_filled" style="vector-effect: non-scaling-stroke; opacity: 1; stroke-width: 2px; fill: url('#pa8266b-aff5ca'); stroke: rgb(0, 0, 0); stroke-opacity: 1;"/></g><g class="point"><path d="M203.26,210V165.57H241.5V210Z" clip-path="url(#clipa8266bxyplot)" class="pattern_filled" style="vector-effect: non-scaling-stroke; opacity: 1; stroke-width: 2px; fill: url('#pa8266b-aff5ca'); stroke: rgb(0, 0, 0); stroke-opacity: 1;"/><text class="bartext bartext-inside" text-anchor="middle" data-notex="1" x="0" y="0" style="font-family: Arial; font-size: 16px; fill: rgb(255, 255, 255); fill-opacity: 1; white-space: pre;" transform="translate(222.38,178.51732782369146)scale(0.7105234159779616)"><tspan class="line" dy="0em" x="0" y="0"> </tspan><tspan class="line" dy="1.3em" x="0" y="0"><tspan style="font-weight:bold">21.2%</tspan></tspan></text></g><g class="point"><path d="M364.26,210V110.9H402.5V210Z" clip-path="url(#clipa8266bxyplot)" class="pattern_filled" style="vector-effect: non-scaling-stroke; opacity: 1; stroke-width: 2px; fill: url('#pa8266b-aff5ca'); stroke: rgb(0, 0, 0); stroke-opacity: 1;"/><text class="bartext bartext-inside" text-anchor="middle" data-notex="1" x="0" y="0" style="font-family: Arial; font-size: 16px; fill: rgb(255, 255, 255); fill-opacity: 1; white-space: pre;" transform="translate(383.38,123.84732782369147)scale(0.7105234159779616)"><tspan class="line" dy="0em" x="0" y="0"> </tspan><tspan class="line" dy="1.3em" x="0" y="0"><tspan style="font-weight:bold">47.2%</tspan></tspan></text></g><g class="point"><path d="M525.26,210V79.11H563.5V210Z" clip-path="url(#clipa8266bxyplot)" class="pattern_filled" style="vector-effect: non-scaling-stroke; opacity: 1; stroke-width: 2px; fill: url('#pa8266b-aff5ca'); stroke: rgb(0, 0, 0); stroke-opacity: 1;"/><text class="bartext bartext-inside" text-anchor="middle" data-notex="1" x="0" y="0" style="font-family: Arial; font-size: 16px; fill: rgb(255, 255, 255); fill-opacity: 1; white-space: pre;" transform="translate(544.38,92.05732782369147)scale(0.7105234159779616)"><tspan class="line" dy="0em" x="0" y="0"> </tspan><tspan class="line" dy="1.3em" x="0" y="0"><tspan style="font-weight:bold">62.3%</tspan></tspan></text></g><g class="point"><path d="M686.26,210V57.43H724.5V210Z" clip-path="url(#clipa8266bxyplot)" class="pattern_filled" style="vector-effect: non-scaling-stroke; opacity: 1; stroke-width: 2px; fill: url('#pa8266b-aff5ca'); stroke: rgb(0, 0, 0); stroke-opacity: 1;"/><text class="bartext bartext-inside" text-anchor="middle" data-notex="1" x="0" y="0" style="font-family: Arial; font-size: 16px; fill: rgb(255, 255, 255); fill-opacity: 1; white-space: pre;" transform="translate(705.38,70.37732782369146)scale(0.7105234159779616)"><tspan class="line" dy="0em" x="0" y="0"> </tspan><tspan class="line" dy="1.3em" x="0" y="0"><tspan style="font-weight:bold">72.7%</tspan></tspan></text></g><g class="point"><path d="M847.26,210V46.18H885.5V210Z" clip-path="url(#clipa8266bxyplot)" class="pattern_filled" style="vector-effect: non-scaling-stroke; opacity: 1; stroke-width: 2px; fill: url('#pa8266b-aff5ca'); stroke: rgb(0, 0, 0); stroke-opacity: 1;"/><text class="bartext bartext-inside" text-anchor="middle" data-notex="1" x="0" y="0" style="font-family: Arial; font-size: 16px; fill: rgb(255, 255, 255); fill-opacity: 1; white-space: pre;" transform="translate(866.38,59.12732782369146)scale(0.7105234159779616)"><tspan class="line" dy="0em" x="0" y="0"> </tspan><tspan class="line" dy="1.3em" x="0" y="0"><tspan style="font-weight:bold">78.0%</tspan></tspan></text></g></g><g class="errorbar" clip-path="url(#clipa8266bxyplot)" style="opacity: 1;"><path class="yerror" d="M57.38,210h8m-4,0V210m-4,0h8" style="vector-effect: non-scaling-stroke; stroke-width: 2px; stroke: rgb(36, 36, 36); stroke-opacity: 1;"/></g><g class="errorbar" clip-path="url(#clipa8266bxyplot)" style="opacity: 1;"><path class="yerror" d="M218.38,157.15h8m-4,0V173.99m-4,0h8" style="vector-effect: non-scaling-stroke; stroke-width: 2px; stroke: rgb(36, 36, 36); stroke-opacity: 1;"/></g><g class="errorbar" clip-path="url(#clipa8266bxyplot)" style="opacity: 1;"><path class="yerror" d="M379.38,103.42h8m-4,0V118.38m-4,0h8" style="vector-effect: non-scaling-stroke; stroke-width: 2px; stroke: rgb(36, 36, 36); stroke-opacity: 1;"/></g><g class="errorbar" clip-path="url(#clipa8266bxyplot)" style="opacity: 1;"><path class="yerror" d="M540.38,74.65h8m-4,0V83.58m-4,0h8" style="vector-effect: non-scaling-stroke; stroke-width: 2px; stroke: rgb(36, 36, 36); stroke-opacity: 1;"/></g><g class="errorbar" clip-path="url(#clipa8266bxyplot)" style="opacity: 1;"><path class="yerror" d="M701.38,54.23h8m-4,0V60.63m-4,0h8" style="vector-effect: non-scaling-stroke; stroke-width: 2px; stroke: rgb(36, 36, 36); stroke-opacity: 1;"/></g><g class="errorbar" clip-path="url(#clipa8266bxyplot)" style="opacity: 1;"><path class="yerror" d="M862.38,41.06h8m-4,0V51.31m-4,0h8" style="vector-effect: non-scaling-stroke; stroke-width: 2px; stroke: rgb(36, 36, 36); stroke-opacity: 1;"/></g></g><g class="trace bars" style="opacity: 1;"><g class="points"><g class="point"><path d="M80.5,210V210H118.74V210Z" clip-path="url(#clipa8266bxyplot)" class="pattern_filled" style="vector-effect: non-scaling-stroke; opacity: 1; stroke-width: 2px; fill: url('#pa8266b-b328a2'); stroke: rgb(0, 0, 0); stroke-opacity: 1;"/></g><g class="point"><path d="M241.5,210V155.05H279.74V210Z" clip-path="url(#clipa8266bxyplot)" class="pattern_filled" style="vector-effect: non-scaling-stroke; opacity: 1; stroke-width: 2px; fill: url('#pa8266b-b328a2'); stroke: rgb(0, 0, 0); stroke-opacity: 1;"/><text class="bartext bartext-inside" text-anchor="middle" data-notex="1" x="0" y="0" style="font-family: Arial; font-size: 16px; fill: rgb(255, 255, 255); fill-opacity: 1; white-space: pre;" transform="translate(260.62,167.99732782369148)scale(0.7105234159779616)"><tspan class="line" dy="0em" x="0" y="0"> </tspan><tspan class="line" dy="1.3em" x="0" y="0"><tspan style="font-weight:bold">26.2%</tspan></tspan></text></g><g class="point"><path d="M402.5,210V111.67H440.74V210Z" clip-path="url(#clipa8266bxyplot)" class="pattern_filled" style="vector-effect: non-scaling-stroke; opacity: 1; stroke-width: 2px; fill: url('#pa8266b-b328a2'); stroke: rgb(0, 0, 0); stroke-opacity: 1;"/><text class="bartext bartext-inside" text-anchor="middle" data-notex="1" x="0" y="0" style="font-family: Arial; font-size: 16px; fill: rgb(255, 255, 255); fill-opacity: 1; white-space: pre;" transform="translate(421.62,124.61732782369147)scale(0.7105234159779616)"><tspan class="line" dy="0em" x="0" y="0"> </tspan><tspan class="line" dy="1.3em" x="0" y="0"><tspan style="font-weight:bold">46.8%</tspan></tspan></text></g><g class="point"><path d="M563.5,210V84.4H601.74V210Z" clip-path="url(#clipa8266bxyplot)" class="pattern_filled" style="vector-effect: non-scaling-stroke; opacity: 1; stroke-width: 2px; fill: url('#pa8266b-b328a2'); stroke: rgb(0, 0, 0); stroke-opacity: 1;"/><text class="bartext bartext-inside" text-anchor="middle" data-notex="1" x="0" y="0" style="font-family: Arial; font-size: 16px; fill: rgb(255, 255, 255); fill-opacity: 1; white-space: pre;" transform="translate(582.62,97.34732782369147)scale(0.7105234159779616)"><tspan class="line" dy="0em" x="0" y="0"> </tspan><tspan class="line" dy="1.3em" x="0" y="0"><tspan style="font-weight:bold">59.8%</tspan></tspan></text></g><g class="point"><path d="M724.5,210V64.42H762.74V210Z" clip-path="url(#clipa8266bxyplot)" class="pattern_filled" style="vector-effect: non-scaling-stroke; opacity: 1; stroke-width: 2px; fill: url('#pa8266b-b328a2'); stroke: rgb(0, 0, 0); stroke-opacity: 1;"/><text class="bartext bartext-inside" text-anchor="middle" data-notex="1" x="0" y="0" style="font-family: Arial; font-size: 16px; fill: rgb(255, 255, 255); fill-opacity: 1; white-space: pre;" transform="translate(743.62,77.36732782369147)scale(0.7105234159779616)"><tspan class="line" dy="0em" x="0" y="0"> </tspan><tspan class="line" dy="1.3em" x="0" y="0"><tspan style="font-weight:bold">69.3%</tspan></tspan></text></g><g class="point"><path d="M885.5,210V50.94H923.74V210Z" clip-path="url(#clipa8266bxyplot)" class="pattern_filled" style="vector-effect: non-scaling-stroke; opacity: 1; stroke-width: 2px; fill: url('#pa8266b-b328a2'); stroke: rgb(0, 0, 0); stroke-opacity: 1;"/><text class="bartext bartext-inside" text-anchor="middle" data-notex="1" x="0" y="0" style="font-family: Arial; font-size: 16px; fill: rgb(255, 255, 255); fill-opacity: 1; white-space: pre;" transform="translate(904.62,63.887327823691464)scale(0.7105234159779616)"><tspan class="line" dy="0em" x="0" y="0"> </tspan><tspan class="line" dy="1.3em" x="0" y="0"><tspan style="font-weight:bold">75.7%</tspan></tspan></text></g></g><g class="errorbar" clip-path="url(#clipa8266bxyplot)" style="opacity: 1;"><path class="yerror" d="M95.62,210h8m-4,0V210m-4,0h8" style="vector-effect: non-scaling-stroke; stroke-width: 2px; stroke: rgb(36, 36, 36); stroke-opacity: 1;"/></g><g class="errorbar" clip-path="url(#clipa8266bxyplot)" style="opacity: 1;"><path class="yerror" d="M256.62,141.65h8m-4,0V168.46m-4,0h8" style="vector-effect: non-scaling-stroke; stroke-width: 2px; stroke: rgb(36, 36, 36); stroke-opacity: 1;"/></g><g class="errorbar" clip-path="url(#clipa8266bxyplot)" style="opacity: 1;"><path class="yerror" d="M417.62,96.86h8m-4,0V126.48m-4,0h8" style="vector-effect: non-scaling-stroke; stroke-width: 2px; stroke: rgb(36, 36, 36); stroke-opacity: 1;"/></g><g class="errorbar" clip-path="url(#clipa8266bxyplot)" style="opacity: 1;"><path class="yerror" d="M578.62,69.61h8m-4,0V99.19m-4,0h8" style="vector-effect: non-scaling-stroke; stroke-width: 2px; stroke: rgb(36, 36, 36); stroke-opacity: 1;"/></g><g class="errorbar" clip-path="url(#clipa8266bxyplot)" style="opacity: 1;"><path class="yerror" d="M739.62,50.59h8m-4,0V78.25m-4,0h8" style="vector-effect: non-scaling-stroke; stroke-width: 2px; stroke: rgb(36, 36, 36); stroke-opacity: 1;"/></g><g class="errorbar" clip-path="url(#clipa8266bxyplot)" style="opacity: 1;"><path class="yerror" d="M900.62,37.76h8m-4,0V64.12m-4,0h8" style="vector-effect: non-scaling-stroke; stroke-width: 2px; stroke: rgb(36, 36, 36); stroke-opacity: 1;"/></g></g><g class="trace bars" style="opacity: 1;"><g class="points"><g class="point"><path d="M118.74,210V210H156.98V210Z" clip-path="url(#clipa8266bxyplot)" style="vector-effect: non-scaling-stroke; opacity: 0.33; stroke-width: 2px; fill: rgb(0, 0, 0); fill-opacity: 1; stroke: rgb(0, 0, 0); stroke-opacity: 1;"/></g><g class="point"><path d="M279.74,210V71.14H317.98V210Z" clip-path="url(#clipa8266bxyplot)" style="vector-effect: non-scaling-stroke; opacity: 0.33; stroke-width: 2px; fill: rgb(0, 0, 0); fill-opacity: 1; stroke: rgb(0, 0, 0); stroke-opacity: 1;"/><text class="bartext bartext-inside" text-anchor="middle" data-notex="1" x="0" y="0" style="font-family: Arial; font-size: 16px; fill: rgb(255, 255, 255); fill-opacity: 1; white-space: pre;" transform="translate(298.86,84.08732782369147)scale(0.7105234159779616)"><tspan class="line" dy="0em" x="0" y="0"> </tspan><tspan class="line" dy="1.3em" x="0" y="0"><tspan style="font-weight:bold">66.1%</tspan></tspan></text></g><g class="point"><path d="M440.74,210V32.68H478.98V210Z" clip-path="url(#clipa8266bxyplot)" style="vector-effect: non-scaling-stroke; opacity: 0.33; stroke-width: 2px; fill: rgb(0, 0, 0); fill-opacity: 1; stroke: rgb(0, 0, 0); stroke-opacity: 1;"/><text class="bartext bartext-inside" text-anchor="middle" data-notex="1" x="0" y="0" style="font-family: Arial; font-size: 16px; fill: rgb(255, 255, 255); fill-opacity: 1; white-space: pre;" transform="translate(459.86,45.62732782369146)scale(0.7105234159779616)"><tspan class="line" dy="0em" x="0" y="0"> </tspan><tspan class="line" dy="1.3em" x="0" y="0"><tspan style="font-weight:bold">84.4%</tspan></tspan></text></g><g class="point"><path d="M601.74,210V17H639.98V210Z" clip-path="url(#clipa8266bxyplot)" style="vector-effect: non-scaling-stroke; opacity: 0.33; stroke-width: 2px; fill: rgb(0, 0, 0); fill-opacity: 1; stroke: rgb(0, 0, 0); stroke-opacity: 1;"/><text class="bartext bartext-inside" text-anchor="middle" data-notex="1" x="0" y="0" style="font-family: Arial; font-size: 16px; fill: rgb(255, 255, 255); fill-opacity: 1; white-space: pre;" transform="translate(620.86,29.947327823691463)scale(0.7105234159779616)"><tspan class="line" dy="0em" x="0" y="0"> </tspan><tspan class="line" dy="1.3em" x="0" y="0"><tspan style="font-weight:bold">91.9%</tspan></tspan></text></g><g class="point"><path d="M762.74,210V10.03H800.98V210Z" clip-path="url(#clipa8266bxyplot)" style="vector-effect: non-scaling-stroke; opacity: 0.33; stroke-width: 2px; fill: rgb(0, 0, 0); fill-opacity: 1; stroke: rgb(0, 0, 0); stroke-opacity: 1;"/><text class="bartext bartext-inside" text-anchor="middle" data-notex="1" x="0" y="0" style="font-family: Arial; font-size: 16px; fill: rgb(255, 255, 255); fill-opacity: 1; white-space: pre;" transform="translate(781.86,22.97732782369146)scale(0.7105234159779616)"><tspan class="line" dy="0em" x="0" y="0"> </tspan><tspan class="line" dy="1.3em" x="0" y="0"><tspan style="font-weight:bold">95.2%</tspan></tspan></text></g><g class="point"><path d="M923.74,210V3.32H961.98V210Z" clip-path="url(#clipa8266bxyplot)" style="vector-effect: non-scaling-stroke; opacity: 0.33; stroke-width: 2px; fill: rgb(0, 0, 0); fill-opacity: 1; stroke: rgb(0, 0, 0); stroke-opacity: 1;"/><text class="bartext bartext-inside" text-anchor="middle" data-notex="1" x="0" y="0" style="font-family: Arial; font-size: 16px; fill: rgb(255, 255, 255); fill-opacity: 1; white-space: pre;" transform="translate(942.86,16.267327823691463)scale(0.7105234159779616)"><tspan class="line" dy="0em" x="0" y="0"> </tspan><tspan class="line" dy="1.3em" x="0" y="0"><tspan style="font-weight:bold">98.4%</tspan></tspan></text></g><g class="point"><path d="M118.74,210V210H156.98V210Z" clip-path="url(#clipa8266bxyplot)" style="vector-effect: non-scaling-stroke; opacity: 0.33; stroke-width: 2px; fill: rgb(0, 0, 0); fill-opacity: 1; stroke: rgb(0, 0, 0); stroke-opacity: 1;"/></g></g><g class="errorbar" clip-path="url(#clipa8266bxyplot)" style="opacity: 1;"><path class="yerror" d="M133.86,210h8m-4,0V210m-4,0h8" style="vector-effect: non-scaling-stroke; stroke-width: 2px; stroke: rgb(36, 36, 36); stroke-opacity: 1;"/></g><g class="errorbar" clip-path="url(#clipa8266bxyplot)" style="opacity: 1;"><path class="yerror" d="M294.86,52.42h8m-4,0V89.85m-4,0h8" style="vector-effect: non-scaling-stroke; stroke-width: 2px; stroke: rgb(36, 36, 36); stroke-opacity: 1;"/></g><g class="errorbar" clip-path="url(#clipa8266bxyplot)" style="opacity: 1;"><path class="yerror" d="M455.86,20.49h8m-4,0V44.88m-4,0h8" style="vector-effect: non-scaling-stroke; stroke-width: 2px; stroke: rgb(36, 36, 36); stroke-opacity: 1;"/></g><g class="errorbar" clip-path="url(#clipa8266bxyplot)" style="opacity: 1;"><path class="yerror" d="M616.86,8.83h8m-4,0V25.17m-4,0h8" style="vector-effect: non-scaling-stroke; stroke-width: 2px; stroke: rgb(36, 36, 36); stroke-opacity: 1;"/></g><g class="errorbar" clip-path="url(#clipa8266bxyplot)" style="opacity: 1;"><path class="yerror" d="M777.86,5.35h8m-4,0V14.71m-4,0h8" style="vector-effect: non-scaling-stroke; stroke-width: 2px; stroke: rgb(36, 36, 36); stroke-opacity: 1;"/></g><g class="errorbar" clip-path="url(#clipa8266bxyplot)" style="opacity: 1;"><path class="yerror" d="M938.86,1.78h8m-4,0V4.85m-4,0h8" style="vector-effect: non-scaling-stroke; stroke-width: 2px; stroke: rgb(36, 36, 36); stroke-opacity: 1;"/></g><g class="errorbar" clip-path="url(#clipa8266bxyplot)" style="opacity: 1;"><path class="yerror" d="M133.86,210h8m-4,0V210m-4,0h8" style="vector-effect: non-scaling-stroke; stroke-width: 2px; stroke: rgb(36, 36, 36); stroke-opacity: 1;"/></g></g></g></g><g class="overplot"/><path class="xlines-above crisp" d="M112,231H1082M112,19H1082" style="fill: none; stroke-width: 2px; stroke: rgb(36, 36, 36); stroke-opacity: 1;"/><path class="ylines-above crisp" d="M113,20V230M1081,20V230" style="fill: none; stroke-width: 2px; stroke: rgb(36, 36, 36); stroke-opacity: 1;"/><g class="overlines-above"/><g class="xaxislayer-above"><path class="xtick ticks crisp" d="M0,232v5" transform="translate(194.5,0)" style="stroke: rgb(68, 68, 68); stroke-opacity: 1; stroke-width: 1px;"/><path class="xtick ticks crisp" d="M0,232v5" transform="translate(355.5,0)" style="stroke: rgb(68, 68, 68); stroke-opacity: 1; stroke-width: 1px;"/><path class="xtick ticks crisp" d="M0,232v5" transform="translate(516.5,0)" style="stroke: rgb(68, 68, 68); stroke-opacity: 1; stroke-width: 1px;"/><path class="xtick ticks crisp" d="M0,232v5" transform="translate(677.5,0)" style="stroke: rgb(68, 68, 68); stroke-opacity: 1; stroke-width: 1px;"/><path class="xtick ticks crisp" d="M0,232v5" transform="translate(838.5,0)" style="stroke: rgb(68, 68, 68); stroke-opacity: 1; stroke-width: 1px;"/><path class="xtick ticks crisp" d="M0,232v5" transform="translate(999.5,0)" style="stroke: rgb(68, 68, 68); stroke-opacity: 1; stroke-width: 1px;"/><g class="xtick"><text text-anchor="middle" x="0" y="256.2" transform="translate(194.5,0)" style="font-family: Arial; font-size: 16px; fill: rgb(0, 0, 0); fill-opacity: 1; white-space: pre; opacity: 1;">At 0mmHg</text></g><g class="xtick"><text text-anchor="middle" x="0" y="256.2" style="font-family: Arial; font-size: 16px; fill: rgb(0, 0, 0); fill-opacity: 1; white-space: pre; opacity: 1;" transform="translate(355.5,0)">At 40mmHg</text></g><g class="xtick"><text text-anchor="middle" x="0" y="256.2" style="font-family: Arial; font-size: 16px; fill: rgb(0, 0, 0); fill-opacity: 1; white-space: pre; opacity: 1;" transform="translate(516.5,0)">At 80mmHg</text></g><g class="xtick"><text text-anchor="middle" x="0" y="256.2" style="font-family: Arial; font-size: 16px; fill: rgb(0, 0, 0); fill-opacity: 1; white-space: pre; opacity: 1;" transform="translate(677.5,0)">At 120mmHg</text></g><g class="xtick"><text text-anchor="middle" x="0" y="256.2" style="font-family: Arial; font-size: 16px; fill: rgb(0, 0, 0); fill-opacity: 1; white-space: pre; opacity: 1;" transform="translate(838.5,0)">At 160mmHg</text></g><g class="xtick"><text text-anchor="middle" x="0" y="256.2" style="font-family: Arial; font-size: 16px; fill: rgb(0, 0, 0); fill-opacity: 1; white-space: pre; opacity: 1;" transform="translate(999.5,0)">At 200mmHg</text></g></g><g class="yaxislayer-above"><path class="ytick ticks crisp" d="M112,0h-5" transform="translate(0,230)" style="stroke: rgb(68, 68, 68); stroke-opacity: 1; stroke-width: 2px;"/><path class="ytick ticks crisp" d="M112,0h-5" transform="translate(0,219.5)" style="stroke: rgb(68, 68, 68); stroke-opacity: 1; stroke-width: 2px;"/><path class="ytick ticks crisp" d="M112,0h-5" transform="translate(0,209)" style="stroke: rgb(68, 68, 68); stroke-opacity: 1; stroke-width: 2px;"/><path class="ytick ticks crisp" d="M112,0h-5" transform="translate(0,198.5)" style="stroke: rgb(68, 68, 68); stroke-opacity: 1; stroke-width: 2px;"/><path class="ytick ticks crisp" d="M112,0h-5" transform="translate(0,188)" style="stroke: rgb(68, 68, 68); stroke-opacity: 1; stroke-width: 2px;"/><path class="ytick ticks crisp" d="M112,0h-5" transform="translate(0,177.5)" style="stroke: rgb(68, 68, 68); stroke-opacity: 1; stroke-width: 2px;"/><path class="ytick ticks crisp" d="M112,0h-5" transform="translate(0,167)" style="stroke: rgb(68, 68, 68); stroke-opacity: 1; stroke-width: 2px;"/><path class="ytick ticks crisp" d="M112,0h-5" transform="translate(0,156.5)" style="stroke: rgb(68, 68, 68); stroke-opacity: 1; stroke-width: 2px;"/><path class="ytick ticks crisp" d="M112,0h-5" transform="translate(0,146)" style="stroke: rgb(68, 68, 68); stroke-opacity: 1; stroke-width: 2px;"/><path class="ytick ticks crisp" d="M112,0h-5" transform="translate(0,135.5)" style="stroke: rgb(68, 68, 68); stroke-opacity: 1; stroke-width: 2px;"/><path class="ytick ticks crisp" d="M112,0h-5" transform="translate(0,125)" style="stroke: rgb(68, 68, 68); stroke-opacity: 1; stroke-width: 2px;"/><path class="ytick ticks crisp" d="M112,0h-5" transform="translate(0,114.5)" style="stroke: rgb(68, 68, 68); stroke-opacity: 1; stroke-width: 2px;"/><path class="ytick ticks crisp" d="M112,0h-5" transform="translate(0,104)" style="stroke: rgb(68, 68, 68); stroke-opacity: 1; stroke-width: 2px;"/><path class="ytick ticks crisp" d="M112,0h-5" transform="translate(0,93.5)" style="stroke: rgb(68, 68, 68); stroke-opacity: 1; stroke-width: 2px;"/><path class="ytick ticks crisp" d="M112,0h-5" transform="translate(0,83)" style="stroke: rgb(68, 68, 68); stroke-opacity: 1; stroke-width: 2px;"/><path class="ytick ticks crisp" d="M112,0h-5" transform="translate(0,72.5)" style="stroke: rgb(68, 68, 68); stroke-opacity: 1; stroke-width: 2px;"/><path class="ytick ticks crisp" d="M112,0h-5" transform="translate(0,62)" style="stroke: rgb(68, 68, 68); stroke-opacity: 1; stroke-width: 2px;"/><path class="ytick ticks crisp" d="M112,0h-5" transform="translate(0,51.5)" style="stroke: rgb(68, 68, 68); stroke-opacity: 1; stroke-width: 2px;"/><path class="ytick ticks crisp" d="M112,0h-5" transform="translate(0,41)" style="stroke: rgb(68, 68, 68); stroke-opacity: 1; stroke-width: 2px;"/><path class="ytick ticks crisp" d="M112,0h-5" transform="translate(0,30.5)" style="stroke: rgb(68, 68, 68); stroke-opacity: 1; stroke-width: 2px;"/><path class="ytick ticks crisp" d="M112,0h-5" transform="translate(0,20)" style="stroke: rgb(68, 68, 68); stroke-opacity: 1; stroke-width: 2px;"/><g class="ytick"><text text-anchor="end" x="103.8" y="5.6" transform="translate(0,230)" style="font-family: Arial; font-size: 16px; fill: rgb(0, 0, 0); fill-opacity: 1; white-space: pre; opacity: 1;">0%</text></g><g class="ytick"><text text-anchor="end" x="103.8" y="5.6" style="font-family: Arial; font-size: 16px; fill: rgb(0, 0, 0); fill-opacity: 1; white-space: pre; opacity: 1;" transform="translate(0,219.5)"> </text></g><g class="ytick"><text text-anchor="end" x="103.8" y="5.6" style="font-family: Arial; font-size: 16px; fill: rgb(0, 0, 0); fill-opacity: 1; white-space: pre; opacity: 1;" transform="translate(0,209)"> </text></g><g class="ytick"><text text-anchor="end" x="103.8" y="5.6" style="font-family: Arial; font-size: 16px; fill: rgb(0, 0, 0); fill-opacity: 1; white-space: pre; opacity: 1;" transform="translate(0,198.5)"> </text></g><g class="ytick"><text text-anchor="end" x="103.8" y="5.6" style="font-family: Arial; font-size: 16px; fill: rgb(0, 0, 0); fill-opacity: 1; white-space: pre; opacity: 1;" transform="translate(0,188)">20%</text></g><g class="ytick"><text text-anchor="end" x="103.8" y="5.6" style="font-family: Arial; font-size: 16px; fill: rgb(0, 0, 0); fill-opacity: 1; white-space: pre; opacity: 1;" transform="translate(0,177.5)"> </text></g><g class="ytick"><text text-anchor="end" x="103.8" y="5.6" style="font-family: Arial; font-size: 16px; fill: rgb(0, 0, 0); fill-opacity: 1; white-space: pre; opacity: 1;" transform="translate(0,167)"> </text></g><g class="ytick"><text text-anchor="end" x="103.8" y="5.6" style="font-family: Arial; font-size: 16px; fill: rgb(0, 0, 0); fill-opacity: 1; white-space: pre; opacity: 1;" transform="translate(0,156.5)"> </text></g><g class="ytick"><text text-anchor="end" x="103.8" y="5.6" style="font-family: Arial; font-size: 16px; fill: rgb(0, 0, 0); fill-opacity: 1; white-space: pre; opacity: 1;" transform="translate(0,146)">40%</text></g><g class="ytick"><text text-anchor="end" x="103.8" y="5.6" style="font-family: Arial; font-size: 16px; fill: rgb(0, 0, 0); fill-opacity: 1; white-space: pre; opacity: 1;" transform="translate(0,135.5)"> </text></g><g class="ytick"><text text-anchor="end" x="103.8" y="5.6" style="font-family: Arial; font-size: 16px; fill: rgb(0, 0, 0); fill-opacity: 1; white-space: pre; opacity: 1;" transform="translate(0,125)"> </text></g><g class="ytick"><text text-anchor="end" x="103.8" y="5.6" style="font-family: Arial; font-size: 16px; fill: rgb(0, 0, 0); fill-opacity: 1; white-space: pre; opacity: 1;" transform="translate(0,114.5)"> </text></g><g class="ytick"><text text-anchor="end" x="103.8" y="5.6" style="font-family: Arial; font-size: 16px; fill: rgb(0, 0, 0); fill-opacity: 1; white-space: pre; opacity: 1;" transform="translate(0,104)">60%</text></g><g class="ytick"><text text-anchor="end" x="103.8" y="5.6" style="font-family: Arial; font-size: 16px; fill: rgb(0, 0, 0); fill-opacity: 1; white-space: pre; opacity: 1;" transform="translate(0,93.5)"> </text></g><g class="ytick"><text text-anchor="end" x="103.8" y="5.6" style="font-family: Arial; font-size: 16px; fill: rgb(0, 0, 0); fill-opacity: 1; white-space: pre; opacity: 1;" transform="translate(0,83)"> </text></g><g class="ytick"><text text-anchor="end" x="103.8" y="5.6" style="font-family: Arial; font-size: 16px; fill: rgb(0, 0, 0); fill-opacity: 1; white-space: pre; opacity: 1;" transform="translate(0,72.5)"> </text></g><g class="ytick"><text text-anchor="end" x="103.8" y="5.6" style="font-family: Arial; font-size: 16px; fill: rgb(0, 0, 0); fill-opacity: 1; white-space: pre; opacity: 1;" transform="translate(0,62)">80%</text></g><g class="ytick"><text text-anchor="end" x="103.8" y="5.6" style="font-family: Arial; font-size: 16px; fill: rgb(0, 0, 0); fill-opacity: 1; white-space: pre; opacity: 1;" transform="translate(0,51.5)"> </text></g><g class="ytick"><text text-anchor="end" x="103.8" y="5.6" style="font-family: Arial; font-size: 16px; fill: rgb(0, 0, 0); fill-opacity: 1; white-space: pre; opacity: 1;" transform="translate(0,41)"> </text></g><g class="ytick"><text text-anchor="end" x="103.8" y="5.6" style="font-family: Arial; font-size: 16px; fill: rgb(0, 0, 0); fill-opacity: 1; white-space: pre; opacity: 1;" transform="translate(0,30.5)"> </text></g><g class="ytick"><text text-anchor="end" x="103.8" y="5.6" style="font-family: Arial; font-size: 16px; fill: rgb(0, 0, 0); fill-opacity: 1; white-space: pre; opacity: 1;" transform="translate(0,20)">100%</text></g></g><g class="overaxes-above"/></g></g><g class="polarlayer"/><g class="smithlayer"/><g class="ternarylayer"/><g class="geolayer"/><g class="funnelarealayer"/><g class="pielayer"/><g class="iciclelayer"/><g class="treemaplayer"/><g class="sunburstlayer"/><g class="glimages"/><defs id="topdefs-a8266b"><g class="clips"/><clipPath id="legenda8266b"><rect width="84" height="130" x="2" y="2"/></clipPath></defs><g class="layer-above"><g class="imagelayer"/><g class="shapelayer"/></g><g class="infolayer"><g class="legend" pointer-events="all" transform="translate(147.28,58)"><rect class="bg" shape-rendering="crispEdges" width="86" height="132" x="1" y="1" style="stroke: rgb(0, 0, 0); stroke-opacity: 1; fill: rgb(255, 255, 255); fill-opacity: 1; stroke-width: 2px;"/><g class="scrollbox" transform="" clip-path="url(#legenda8266b)"><text class="legendtitletext" text-anchor="start" x="4" y="26.7" style="font-family: 'Arial Black'; font-size: 19px; fill: rgb(0, 0, 0); fill-opacity: 1; white-space: pre;">Size</text><g class="groups" transform=""><g class="traces" transform="translate(2,43.6)" style="opacity: 1;"><text class="legendtext" text-anchor="start" x="40" y="6.24" style="font-family: Arial; font-size: 16px; fill: rgb(0, 0, 0); fill-opacity: 1; white-space: pre;">S</text><g class="layers" style="opacity: 1;"><g class="legendfill"/><g class="legendlines"/><g class="legendsymbols"><g class="legendpoints"><path class="legendundefined pattern_filled" d="M6,6H-6V-6H6Z" transform="translate(20,0)" style="stroke-width: 2px; fill: url('#pa8266b-legend-209bd9'); stroke: rgb(0, 0, 0); stroke-opacity: 1;"/></g></g></g><rect class="legendtoggle" x="0" y="-11.9" width="78.359375" height="23.8" style="fill: rgb(0, 0, 0); fill-opacity: 0;"/></g></g><g class="groups" transform=""><g class="traces" transform="translate(2,67.4)" style="opacity: 1;"><text class="legendtext" text-anchor="start" x="40" y="6.24" style="font-family: Arial; font-size: 16px; fill: rgb(0, 0, 0); fill-opacity: 1; white-space: pre;">M</text><g class="layers" style="opacity: 1;"><g class="legendfill"/><g class="legendlines"/><g class="legendsymbols"><g class="legendpoints"><path class="legendundefined pattern_filled" d="M6,6H-6V-6H6Z" transform="translate(20,0)" style="stroke-width: 2px; fill: url('#pa8266b-legend-aff5ca'); stroke: rgb(0, 0, 0); stroke-opacity: 1;"/></g></g></g><rect class="legendtoggle" x="0" y="-11.9" width="78.359375" height="23.8" style="fill: rgb(0, 0, 0); fill-opacity: 0;"/></g></g><g class="groups" transform=""><g class="traces" transform="translate(2,91.2)" style="opacity: 1;"><text class="legendtext" text-anchor="start" x="40" y="6.24" style="font-family: Arial; font-size: 16px; fill: rgb(0, 0, 0); fill-opacity: 1; white-space: pre;">L</text><g class="layers" style="opacity: 1;"><g class="legendfill"/><g class="legendlines"/><g class="legendsymbols"><g class="legendpoints"><path class="legendundefined pattern_filled" d="M6,6H-6V-6H6Z" transform="translate(20,0)" style="stroke-width: 2px; fill: url('#pa8266b-legend-b328a2'); stroke: rgb(0, 0, 0); stroke-opacity: 1;"/></g></g></g><rect class="legendtoggle" x="0" y="-11.9" width="78.359375" height="23.8" style="fill: rgb(0, 0, 0); fill-opacity: 0;"/></g></g><g class="groups" transform=""><g class="traces" transform="translate(2,115.00000000000001)" style="opacity: 1;"><text class="legendtext" text-anchor="start" x="40" y="6.24" style="font-family: Arial; font-size: 16px; fill: rgb(0, 0, 0); fill-opacity: 1; white-space: pre;">None</text><g class="layers" style="opacity: 1;"><g class="legendfill"/><g class="legendlines"/><g class="legendsymbols"><g class="legendpoints"><path class="legendundefined" d="M6,6H-6V-6H6Z" transform="translate(20,0)" style="stroke-width: 2px; fill: rgb(0, 0, 0); fill-opacity: 1; stroke: rgb(0, 0, 0); stroke-opacity: 1;"/></g></g></g><rect class="legendtoggle" x="0" y="-11.9" width="78.359375" height="23.8" style="fill: rgb(0, 0, 0); fill-opacity: 0;"/></g></g></g><rect class="scrollbar" rx="20" ry="3" width="0" height="0" x="0" y="0" style="fill: rgb(128, 139, 164); fill-opacity: 1;"/></g><g class="g-gtitle"><text class="gtitle" x="550" y="0" text-anchor="middle" dy="0.7em" style="font-family: Arial; font-size: 16px; fill: rgb(0, 0, 0); opacity: 1; font-weight: normal; white-space: pre;">Varying Size with Material=['Nitrile', 'None'], Method=['Middle', 'None']</text></g><g class="g-xtitle"><text class="xtitle" x="597" y="288.203125" text-anchor="middle" style="font-family: 'Arial Black'; font-size: 20px; fill: rgb(0, 0, 0); opacity: 1; font-weight: normal; white-space: pre;">Applied Circumferential Pressure (mmHg)</text></g><g class="g-ytitle" transform="translate(4.125,0)"><text class="ytitle" transform="rotate(-90,11.875,125)" x="11.875" y="125" text-anchor="middle" style="font-family: 'Arial Black'; font-size: 18px; fill: rgb(0, 0, 0); opacity: 1; font-weight: normal; white-space: pre;"><tspan class="line" dy="0em" x="11.875" y="125">Relative Inward Creep </tspan><tspan class="line" dy="1.3em" x="11.875" y="125"> Into Field of View (S.E.)</tspan></text></g></g></svg>