<svg class="main-svg" xmlns="http://www.w3.org/2000/svg" xmlns:xlink="http://www.w3.org/1999/xlink" width="4400" height="1200" style="" viewBox="0 0 1100 300"><rect x="0" y="0" width="1100" height="300" style="fill: rgb(255, 255, 255); fill-opacity: 1;"/><defs id="defs-9fce93"><g class="clips"><clipPath id="clip9fce93xyplot" class="plotclip"><rect width="966" height="210"/></clipPath><clipPath class="axesclip" id="clip9fce93x"><rect x="114" y="0" width="966" height="300"/></clipPath><clipPath class="axesclip" id="clip9fce93y"><rect x="0" y="20" width="1100" height="210"/></clipPath><clipPath class="axesclip" id="clip9fce93xy"><rect x="114" y="20" width="966" height="210"/></clipPath></g><g class="gradients"/><g class="patterns"><pattern id="p9fce93-legend-aaedd4" width="14.142135623730951px" height="14.142135623730951px" patternUnits="userSpaceOnUse" patternTransform="scale(0.8)"><rect width="14.142135623730951px" height="14.142135623730951px" fill="#D62728"/><path d="M-3.5355339059327378,3.5355339059327378l7.0710678118654755,-7.0710678118654755M0,14.142135623730951L14.142135623730951,0M10.606601717798213,17.67766952966369l7.0710678118654755,-7.0710678118654755M10.606601717798213,-3.5355339059327378l7.0710678118654755,7.0710678118654755M0,0L14.142135623730951,14.142135623730951M-3.5355339059327378,10.606601717798213l7.0710678118654755,7.0710678118654755" opacity="0.5" stroke="#fff" stroke-width="1.0557280900008408px"/></pattern><pattern id="p9fce93-legend-f44df6" width="10px" height="10px" patternUnits="userSpaceOnUse" patternTransform="scale(0.8)"><rect width="10px" height="10px" fill="#9467BD"/><path d="M5,0L5,10M0,5L10,5" opacity="0.5" stroke="#fff" stroke-width="1.0557280900008408px"/></pattern><pattern id="p9fce93-aaedd4" width="14.142135623730951px" height="14.142135623730951px" patternUnits="userSpaceOnUse" patternTransform=""><rect width="14.142135623730951px" height="14.142135623730951px" fill="#D62728"/><path d="M-3.5355339059327378,3.5355339059327378l7.0710678118654755,-7.0710678118654755M0,14.142135623730951L14.142135623730951,0M10.606601717798213,17.67766952966369l7.0710678118654755,-7.0710678118654755M10.606601717798213,-3.5355339059327378l7.0710678118654755,7.0710678118654755M0,0L14.142135623730951,14.142135623730951M-3.5355339059327378,10.606601717798213l7.0710678118654755,7.0710678118654755" opacity="0.5" stroke="#fff" stroke-width="1.0557280900008408px"/></pattern><pattern id="p9fce93-f44df6" width="10px" height="10px" patternUnits="userSpaceOnUse" patternTransform=""><rect width="10px" height="10px" fill="#9467BD"/><path d="M5,0L5,10M0,5L10,5" opacity="0.5" stroke="#fff" stroke-width="1.0557280900008408px"/></pattern></g></defs><g class="bglayer"/><g class="layer-below"><g class="imagelayer"/><g class="shapelayer"/></g><g class="cartesianlayer"><g class="subplot xy"><g class="layer-subplot"><g class="shapelayer"/><g class="imagelayer"/></g><g class="gridlayer"><g class="x"/><g class="y"><path class="ygrid crisp" transform="translate(0,219.5)" d="M114,0h966" style="stroke: rgb(170, 170, 170); stroke-opacity: 1; stroke-width: 1px;"/><path class="ygrid crisp" transform="translate(0,209)" d="M114,0h966" style="stroke: rgb(170, 170, 170); stroke-opacity: 1; stroke-width: 1px;"/><path class="ygrid crisp" transform="translate(0,198.5)" d="M114,0h966" style="stroke: rgb(170, 170, 170); stroke-opacity: 1; stroke-width: 1px;"/><path class="ygrid crisp" transform="translate(0,188)" d="M114,0h966" style="stroke: rgb(170, 170, 170); stroke-opacity: 1; stroke-width: 1px;"/><path class="ygrid crisp" transform="translate(0,177.5)" d="M114,0h966" style="stroke: rgb(170, 170, 170); stroke-opacity: 1; stroke-width: 1px;"/><path class="ygrid crisp" transform="translate(0,167)" d="M114,0h966" style="stroke: rgb(170, 170, 170); stroke-opacity: 1; stroke-width: 1px;"/><path class="ygrid crisp" transform="translate(0,156.5)" d="M114,0h966" style="stroke: rgb(170, 170, 170); stroke-opacity: 1; stroke-width: 1px;"/><path class="ygrid crisp" transform="translate(0,146)" d="M114,0h966" style="stroke: rgb(170, 170, 170); stroke-opacity: 1; stroke-width: 1px;"/><path class="ygrid crisp" transform="translate(0,135.5)" d="M114,0h966" style="stroke: rgb(170, 170, 170); stroke-opacity: 1; stroke-width: 1px;"/><path class="ygrid crisp" transform="translate(0,125)" d="M114,0h966" style="stroke: rgb(170, 170, 170); stroke-opacity: 1; stroke-width: 1px;"/><path class="ygrid crisp" transform="translate(0,114.5)" d="M114,0h966" style="stroke: rgb(170, 170, 170); stroke-opacity: 1; stroke-width: 1px;"/><path class="ygrid crisp" transform="translate(0,104)" d="M114,0h966" style="stroke: rgb(170, 170, 170); stroke-opacity: 1; stroke-width: 1px;"/><path class="ygrid crisp" transform="translate(0,93.5)" d="M114,0h966" style="stroke: rgb(170, 170, 170); stroke-opacity: 1; stroke-width: 1px;"/><path class="ygrid crisp" transform="translate(0,83)" d="M114,0h966" style="stroke: rgb(170, 170, 170); stroke-opacity: 1; stroke-width: 1px;"/><path class="ygrid crisp" transform="translate(0,72.5)" d="M114,0h966" style="stroke: rgb(170, 170, 170); stroke-opacity: 1; stroke-width: 1px;"/><path class="ygrid crisp" transform="translate(0,62)" d="M114,0h966" style="stroke: rgb(170, 170, 170); stroke-opacity: 1; stroke-width: 1px;"/><path class="ygrid crisp" transform="translate(0,51.5)" d="M114,0h966" style="stroke: rgb(170, 170, 170); stroke-opacity: 1; stroke-width: 1px;"/><path class="ygrid crisp" transform="translate(0,41)" d="M114,0h966" style="stroke: rgb(170, 170, 170); stroke-opacity: 1; stroke-width: 1px;"/><path class="ygrid crisp" transform="translate(0,30.5)" d="M114,0h966" style="stroke: rgb(170, 170, 170); stroke-opacity: 1; stroke-width: 1px;"/></g></g><g class="zerolinelayer"/><path class="xlines-below"/><path class="ylines-below"/><g class="overlines-below"/><g class="xaxislayer-below"/><g class="yaxislayer-below"/><g class="overaxes-below"/><g class="plot" transform="translate(114,20)"><g class="barlayer mlayer"><g class="trace bars" style="opacity: 1;"><g class="points"><g class="point"><path d="M4.02,210V210H55.01V210Z" clip-path="url(#clip9fce93xyplot)" class="pattern_filled" style="vector-effect: non-scaling-stroke; opacity: 1; stroke-width: 2px; fill: url('#p9fce93-aaedd4'); stroke: rgb(0, 0, 0); stroke-opacity: 1;"/></g><g class="point"><path d="M165.03,210V165.57H216.01V210Z" clip-path="url(#clip9fce93xyplot)" class="pattern_filled" style="vector-effect: non-scaling-stroke; opacity: 1; stroke-width: 2px; fill: url('#p9fce93-aaedd4'); stroke: rgb(0, 0, 0); stroke-opacity: 1;"/><text class="bartext bartext-inside" text-anchor="middle" data-notex="1" x="0" y="0" style="font-family: Arial; font-size: 16px; fill: rgb(255, 255, 255); fill-opacity: 1; white-space: pre;" transform="translate(190.51999999999998,182.44812672176306)scale(0.9912947658402201)"><tspan class="line" dy="0em" x="0" y="0"> </tspan><tspan class="line" dy="1.3em" x="0" y="0"><tspan style="font-weight:bold">21.2%</tspan></tspan></text></g><g class="point"><path d="M326.03,210V110.9H377.01V210Z" clip-path="url(#clip9fce93xyplot)" class="pattern_filled" style="vector-effect: non-scaling-stroke; opacity: 1; stroke-width: 2px; fill: url('#p9fce93-aaedd4'); stroke: rgb(0, 0, 0); stroke-opacity: 1;"/><text class="bartext bartext-inside" text-anchor="middle" data-notex="1" x="0" y="0" style="font-family: Arial; font-size: 16px; fill: rgb(255, 255, 255); fill-opacity: 1; white-space: pre;" transform="translate(351.52,127.7781267217631)scale(0.9912947658402208)"><tspan class="line" dy="0em" x="0" y="0"> </tspan><tspan class="line" dy="1.3em" x="0" y="0"><tspan style="font-weight:bold">47.2%</tspan></tspan></text></g><g class="point"><path d="M487.03,210V79.11H538.01V210Z" clip-path="url(#clip9fce93xyplot)" class="pattern_filled" style="vector-effect: non-scaling-stroke; opacity: 1; stroke-width: 2px; fill: url('#p9fce93-aaedd4'); stroke: rgb(0, 0, 0); stroke-opacity: 1;"/><text class="bartext bartext-inside" text-anchor="middle" data-notex="1" x="0" y="0" style="font-family: Arial; font-size: 16px; fill: rgb(255, 255, 255); fill-opacity: 1; white-space: pre;" transform="translate(512.52,95.9881267217631)scale(0.9912947658402208)"><tspan class="line" dy="0em" x="0" y="0"> </tspan><tspan class="line" dy="1.3em" x="0" y="0"><tspan style="font-weight:bold">62.3%</tspan></tspan></text></g><g class="point"><path d="M648.03,210V57.43H699.01V210Z" clip-path="url(#clip9fce93xyplot)" class="pattern_filled" style="vector-effect: non-scaling-stroke; opacity: 1; stroke-width: 2px; fill: url('#p9fce93-aaedd4'); stroke: rgb(0, 0, 0); stroke-opacity: 1;"/><text class="bartext bartext-inside" text-anchor="middle" data-notex="1" x="0" y="0" style="font-family: Arial; font-size: 16px; fill: rgb(255, 255, 255); fill-opacity: 1; white-space: pre;" transform="translate(673.52,74.30812672176309)scale(0.9912947658402208)"><tspan class="line" dy="0em" x="0" y="0"> </tspan><tspan class="line" dy="1.3em" x="0" y="0"><tspan style="font-weight:bold">72.7%</tspan></tspan></text></g><g class="point"><path d="M809.03,210V46.18H860.01V210Z" clip-path="url(#clip9fce93xyplot)" class="pattern_filled" style="vector-effect: non-scaling-stroke; opacity: 1; stroke-width: 2px; fill: url('#p9fce93-aaedd4'); stroke: rgb(0, 0, 0); stroke-opacity: 1;"/><text class="bartext bartext-inside" text-anchor="middle" data-notex="1" x="0" y="0" style="font-family: Arial; font-size: 16px; fill: rgb(255, 255, 255); fill-opacity: 1; white-space: pre;" transform="translate(834.52,63.05812672176309)scale(0.9912947658402208)"><tspan class="line" dy="0em" x="0" y="0"> </tspan><tspan class="line" dy="1.3em" x="0" y="0"><tspan style="font-weight:bold">78.0%</tspan></tspan></text></g></g><g class="errorbar" clip-path="url(#clip9fce93xyplot)" style="opacity: 1;"><path class="yerror" d="M25.52,210h8m-4,0V210m-4,0h8" style="vector-effect: non-scaling-stroke; stroke-width: 2px; stroke: rgb(36, 36, 36); stroke-opacity: 1;"/></g><g class="errorbar" clip-path="url(#clip9fce93xyplot)" style="opacity: 1;"><path class="yerror" d="M186.52,157.15h8m-4,0V173.99m-4,0h8" style="vector-effect: non-scaling-stroke; stroke-width: 2px; stroke: rgb(36, 36, 36); stroke-opacity: 1;"/></g><g class="errorbar" clip-path="url(#clip9fce93xyplot)" style="opacity: 1;"><path class="yerror" d="M347.52,103.42h8m-4,0V118.38m-4,0h8" style="vector-effect: non-scaling-stroke; stroke-width: 2px; stroke: rgb(36, 36, 36); stroke-opacity: 1;"/></g><g class="errorbar" clip-path="url(#clip9fce93xyplot)" style="opacity: 1;"><path class="yerror" d="M508.52,74.65h8m-4,0V83.58m-4,0h8" style="vector-effect: non-scaling-stroke; stroke-width: 2px; stroke: rgb(36, 36, 36); stroke-opacity: 1;"/></g><g class="errorbar" clip-path="url(#clip9fce93xyplot)" style="opacity: 1;"><path class="yerror" d="M669.52,54.23h8m-4,0V60.63m-4,0h8" style="vector-effect: non-scaling-stroke; stroke-width: 2px; stroke: rgb(36, 36, 36); stroke-opacity: 1;"/></g><g class="errorbar" clip-path="url(#clip9fce93xyplot)" style="opacity: 1;"><path class="yerror" d="M830.52,41.06h8m-4,0V51.31m-4,0h8" style="vector-effect: non-scaling-stroke; stroke-width: 2px; stroke: rgb(36, 36, 36); stroke-opacity: 1;"/></g></g><g class="trace bars" style="opacity: 1;"><g class="points"><g class="point"><path d="M55.01,210V210H105.99V210Z" clip-path="url(#clip9fce93xyplot)" class="pattern_filled" style="vector-effect: non-scaling-stroke; opacity: 1; stroke-width: 2px; fill: url('#p9fce93-f44df6'); stroke: rgb(0, 0, 0); stroke-opacity: 1;"/></g><g class="point"><path d="M216.01,210V105.35H266.99V210Z" clip-path="url(#clip9fce93xyplot)" class="pattern_filled" style="vector-effect: non-scaling-stroke; opacity: 1; stroke-width: 2px; fill: url('#p9fce93-f44df6'); stroke: rgb(0, 0, 0); stroke-opacity: 1;"/><text class="bartext bartext-inside" text-anchor="middle" data-notex="1" x="0" y="0" style="font-family: Arial; font-size: 16px; fill: rgb(255, 255, 255); fill-opacity: 1; white-space: pre;" transform="translate(241.5,122.22812672176309)scale(0.9912947658402208)"><tspan class="line" dy="0em" x="0" y="0"> </tspan><tspan class="line" dy="1.3em" x="0" y="0"><tspan style="font-weight:bold">49.8%</tspan></tspan></text></g><g class="point"><path d="M377.01,210V54.98H427.99V210Z" clip-path="url(#clip9fce93xyplot)" class="pattern_filled" style="vector-effect: non-scaling-stroke; opacity: 1; stroke-width: 2px; fill: url('#p9fce93-f44df6'); stroke: rgb(0, 0, 0); stroke-opacity: 1;"/><text class="bartext bartext-inside" text-anchor="middle" data-notex="1" x="0" y="0" style="font-family: Arial; font-size: 16px; fill: rgb(255, 255, 255); fill-opacity: 1; white-space: pre;" transform="translate(402.5,71.85812672176309)scale(0.9912947658402208)"><tspan class="line" dy="0em" x="0" y="0"> </tspan><tspan class="line" dy="1.3em" x="0" y="0"><tspan style="font-weight:bold">73.8%</tspan></tspan></text></g><g class="point"><path d="M538.01,210V26.79H588.99V210Z" clip-path="url(#clip9fce93xyplot)" class="pattern_filled" style="vector-effect: non-scaling-stroke; opacity: 1; stroke-width: 2px; fill: url('#p9fce93-f44df6'); stroke: rgb(0, 0, 0); stroke-opacity: 1;"/><text class="bartext bartext-inside" text-anchor="middle" data-notex="1" x="0" y="0" style="font-family: Arial; font-size: 16px; fill: rgb(255, 255, 255); fill-opacity: 1; white-space: pre;" transform="translate(563.5,43.66812672176309)scale(0.9912947658402208)"><tspan class="line" dy="0em" x="0" y="0"> </tspan><tspan class="line" dy="1.3em" x="0" y="0"><tspan style="font-weight:bold">87.2%</tspan></tspan></text></g><g class="point"><path d="M699.01,210V12.72H749.99V210Z" clip-path="url(#clip9fce93xyplot)" class="pattern_filled" style="vector-effect: non-scaling-stroke; opacity: 1; stroke-width: 2px; fill: url('#p9fce93-f44df6'); stroke: rgb(0, 0, 0); stroke-opacity: 1;"/><text class="bartext bartext-inside" text-anchor="middle" data-notex="1" x="0" y="0" style="font-family: Arial; font-size: 16px; fill: rgb(255, 255, 255); fill-opacity: 1; white-space: pre;" transform="translate(724.5,29.598126721763094)scale(0.9912947658402208)"><tspan class="line" dy="0em" x="0" y="0"> </tspan><tspan class="line" dy="1.3em" x="0" y="0"><tspan style="font-weight:bold">93.9%</tspan></tspan></text></g><g class="point"><path d="M860.01,210V3.84H910.99V210Z" clip-path="url(#clip9fce93xyplot)" class="pattern_filled" style="vector-effect: non-scaling-stroke; opacity: 1; stroke-width: 2px; fill: url('#p9fce93-f44df6'); stroke: rgb(0, 0, 0); stroke-opacity: 1;"/><text class="bartext bartext-inside" text-anchor="middle" data-notex="1" x="0" y="0" style="font-family: Arial; font-size: 16px; fill: rgb(255, 255, 255); fill-opacity: 1; white-space: pre;" transform="translate(885.5,20.718126721763092)scale(0.9912947658402208)"><tspan class="line" dy="0em" x="0" y="0"> </tspan><tspan class="line" dy="1.3em" x="0" y="0"><tspan style="font-weight:bold">98.2%</tspan></tspan></text></g></g><g class="errorbar" clip-path="url(#clip9fce93xyplot)" style="opacity: 1;"><path class="yerror" d="M76.5,210h8m-4,0V210m-4,0h8" style="vector-effect: non-scaling-stroke; stroke-width: 2px; stroke: rgb(36, 36, 36); stroke-opacity: 1;"/></g><g class="errorbar" clip-path="url(#clip9fce93xyplot)" style="opacity: 1;"><path class="yerror" d="M237.5,96.78h8m-4,0V113.92m-4,0h8" style="vector-effect: non-scaling-stroke; stroke-width: 2px; stroke: rgb(36, 36, 36); stroke-opacity: 1;"/></g><g class="errorbar" clip-path="url(#clip9fce93xyplot)" style="opacity: 1;"><path class="yerror" d="M398.5,46.47h8m-4,0V63.48m-4,0h8" style="vector-effect: non-scaling-stroke; stroke-width: 2px; stroke: rgb(36, 36, 36); stroke-opacity: 1;"/></g><g class="errorbar" clip-path="url(#clip9fce93xyplot)" style="opacity: 1;"><path class="yerror" d="M559.5,16.94h8m-4,0V36.64m-4,0h8" style="vector-effect: non-scaling-stroke; stroke-width: 2px; stroke: rgb(36, 36, 36); stroke-opacity: 1;"/></g><g class="errorbar" clip-path="url(#clip9fce93xyplot)" style="opacity: 1;"><path class="yerror" d="M720.5,6.58h8m-4,0V18.86m-4,0h8" style="vector-effect: non-scaling-stroke; stroke-width: 2px; stroke: rgb(36, 36, 36); stroke-opacity: 1;"/></g><g class="errorbar" clip-path="url(#clip9fce93xyplot)" style="opacity: 1;"><path class="yerror" d="M881.5,1.23h8m-4,0V6.45m-4,0h8" style="vector-effect: non-scaling-stroke; stroke-width: 2px; stroke: rgb(36, 36, 36); stroke-opacity: 1;"/></g></g><g class="trace bars" style="opacity: 1;"><g class="points"><g class="point"><path d="M105.99,210V210H156.98V210Z" clip-path="url(#clip9fce93xyplot)" style="vector-effect: non-scaling-stroke; opacity: 0.33; stroke-width: 2px; fill: rgb(0, 0, 0); fill-opacity: 1; stroke: rgb(0, 0, 0); stroke-opacity: 1;"/></g><g class="point"><path d="M266.99,210V71.14H317.98V210Z" clip-path="url(#clip9fce93xyplot)" style="vector-effect: non-scaling-stroke; opacity: 0.33; stroke-width: 2px; fill: rgb(0, 0, 0); fill-opacity: 1; stroke: rgb(0, 0, 0); stroke-opacity: 1;"/><text class="bartext bartext-inside" text-anchor="middle" data-notex="1" x="0" y="0" style="font-family: Arial; font-size: 16px; fill: rgb(255, 255, 255); fill-opacity: 1; white-space: pre;" transform="translate(292.485,88.02121212121213)scale(0.9915151515151517)"><tspan class="line" dy="0em" x="0" y="0"> </tspan><tspan class="line" dy="1.3em" x="0" y="0"><tspan style="font-weight:bold">66.1%</tspan></tspan></text></g><g class="point"><path d="M427.99,210V32.68H478.98V210Z" clip-path="url(#clip9fce93xyplot)" style="vector-effect: non-scaling-stroke; opacity: 0.33; stroke-width: 2px; fill: rgb(0, 0, 0); fill-opacity: 1; stroke: rgb(0, 0, 0); stroke-opacity: 1;"/><text class="bartext bartext-inside" text-anchor="middle" data-notex="1" x="0" y="0" style="font-family: Arial; font-size: 16px; fill: rgb(255, 255, 255); fill-opacity: 1; white-space: pre;" transform="translate(453.485,49.56121212121212)scale(0.9915151515151517)"><tspan class="line" dy="0em" x="0" y="0"> </tspan><tspan class="line" dy="1.3em" x="0" y="0"><tspan style="font-weight:bold">84.4%</tspan></tspan></text></g><g class="point"><path d="M588.99,210V17H639.98V210Z" clip-path="url(#clip9fce93xyplot)" style="vector-effect: non-scaling-stroke; opacity: 0.33; stroke-width: 2px; fill: rgb(0, 0, 0); fill-opacity: 1; stroke: rgb(0, 0, 0); stroke-opacity: 1;"/><text class="bartext bartext-inside" text-anchor="middle" data-notex="1" x="0" y="0" style="font-family: Arial; font-size: 16px; fill: rgb(255, 255, 255); fill-opacity: 1; white-space: pre;" transform="translate(614.485,33.88121212121212)scale(0.9915151515151517)"><tspan class="line" dy="0em" x="0" y="0"> </tspan><tspan class="line" dy="1.3em" x="0" y="0"><tspan style="font-weight:bold">91.9%</tspan></tspan></text></g><g class="point"><path d="M749.99,210V10.03H800.98V210Z" clip-path="url(#clip9fce93xyplot)" style="vector-effect: non-scaling-stroke; opacity: 0.33; stroke-width: 2px; fill: rgb(0, 0, 0); fill-opacity: 1; stroke: rgb(0, 0, 0); stroke-opacity: 1;"/><text class="bartext bartext-inside" text-anchor="middle" data-notex="1" x="0" y="0" style="font-family: Arial; font-size: 16px; fill: rgb(255, 255, 255); fill-opacity: 1; white-space: pre;" transform="translate(775.485,26.911212121212124)scale(0.9915151515151517)"><tspan class="line" dy="0em" x="0" y="0"> </tspan><tspan class="line" dy="1.3em" x="0" y="0"><tspan style="font-weight:bold">95.2%</tspan></tspan></text></g><g class="point"><path d="M910.99,210V3.32H961.98V210Z" clip-path="url(#clip9fce93xyplot)" style="vector-effect: non-scaling-stroke; opacity: 0.33; stroke-width: 2px; fill: rgb(0, 0, 0); fill-opacity: 1; stroke: rgb(0, 0, 0); stroke-opacity: 1;"/><text class="bartext bartext-inside" text-anchor="middle" data-notex="1" x="0" y="0" style="font-family: Arial; font-size: 16px; fill: rgb(255, 255, 255); fill-opacity: 1; white-space: pre;" transform="translate(936.485,20.201212121212123)scale(0.9915151515151517)"><tspan class="line" dy="0em" x="0" y="0"> </tspan><tspan class="line" dy="1.3em" x="0" y="0"><tspan style="font-weight:bold">98.4%</tspan></tspan></text></g><g class="point"><path d="M105.99,210V210H156.98V210Z" clip-path="url(#clip9fce93xyplot)" style="vector-effect: non-scaling-stroke; opacity: 0.33; stroke-width: 2px; fill: rgb(0, 0, 0); fill-opacity: 1; stroke: rgb(0, 0, 0); stroke-opacity: 1;"/></g></g><g class="errorbar" clip-path="url(#clip9fce93xyplot)" style="opacity: 1;"><path class="yerror" d="M127.47999999999999,210h8m-4,0V210m-4,0h8" style="vector-effect: non-scaling-stroke; stroke-width: 2px; stroke: rgb(36, 36, 36); stroke-opacity: 1;"/></g><g class="errorbar" clip-path="url(#clip9fce93xyplot)" style="opacity: 1;"><path class="yerror" d="M288.48,52.42h8m-4,0V89.85m-4,0h8" style="vector-effect: non-scaling-stroke; stroke-width: 2px; stroke: rgb(36, 36, 36); stroke-opacity: 1;"/></g><g class="errorbar" clip-path="url(#clip9fce93xyplot)" style="opacity: 1;"><path class="yerror" d="M449.48,20.49h8m-4,0V44.88m-4,0h8" style="vector-effect: non-scaling-stroke; stroke-width: 2px; stroke: rgb(36, 36, 36); stroke-opacity: 1;"/></g><g class="errorbar" clip-path="url(#clip9fce93xyplot)" style="opacity: 1;"><path class="yerror" d="M610.48,8.83h8m-4,0V25.17m-4,0h8" style="vector-effect: non-scaling-stroke; stroke-width: 2px; stroke: rgb(36, 36, 36); stroke-opacity: 1;"/></g><g class="errorbar" clip-path="url(#clip9fce93xyplot)" style="opacity: 1;"><path class="yerror" d="M771.48,5.35h8m-4,0V14.71m-4,0h8" style="vector-effect: non-scaling-stroke; stroke-width: 2px; stroke: rgb(36, 36, 36); stroke-opacity: 1;"/></g><g class="errorbar" clip-path="url(#clip9fce93xyplot)" style="opacity: 1;"><path class="yerror" d="M932.48,1.78h8m-4,0V4.85m-4,0h8" style="vector-effect: non-scaling-stroke; stroke-width: 2px; stroke: rgb(36, 36, 36); stroke-opacity: 1;"/></g><g class="errorbar" clip-path="url(#clip9fce93xyplot)" style="opacity: 1;"><path class="yerror" d="M127.47999999999999,210h8m-4,0V210m-4,0h8" style="vector-effect: non-scaling-stroke; stroke-width: 2px; stroke: rgb(36, 36, 36); stroke-opacity: 1;"/></g></g></g></g><g class="overplot"/><path class="xlines-above crisp" d="M112,231H1082M112,19H1082" style="fill: none; stroke-width: 2px; stroke: rgb(36, 36, 36); stroke-opacity: 1;"/><path class="ylines-above crisp" d="M113,20V230M1081,20V230" style="fill: none; stroke-width: 2px; stroke: rgb(36, 36, 36); stroke-opacity: 1;"/><g class="overlines-above"/><g class="xaxislayer-above"><path class="xtick ticks crisp" d="M0,232v5" transform="translate(194.5,0)" style="stroke: rgb(68, 68, 68); stroke-opacity: 1; stroke-width: 1px;"/><path class="xtick ticks crisp" d="M0,232v5" transform="translate(355.5,0)" style="stroke: rgb(68, 68, 68); stroke-opacity: 1; stroke-width: 1px;"/><path class="xtick ticks crisp" d="M0,232v5" transform="translate(516.5,0)" style="stroke: rgb(68, 68, 68); stroke-opacity: 1; stroke-width: 1px;"/><path class="xtick ticks crisp" d="M0,232v5" transform="translate(677.5,0)" style="stroke: rgb(68, 68, 68); stroke-opacity: 1; stroke-width: 1px;"/><path class="xtick ticks crisp" d="M0,232v5" transform="translate(838.5,0)" style="stroke: rgb(68, 68, 68); stroke-opacity: 1; stroke-width: 1px;"/><path class="xtick ticks crisp" d="M0,232v5" transform="translate(999.5,0)" style="stroke: rgb(68, 68, 68); stroke-opacity: 1; stroke-width: 1px;"/><g class="xtick"><text text-anchor="middle" x="0" y="256.2" transform="translate(194.5,0)" style="font-family: Arial; font-size: 16px; fill: rgb(0, 0, 0); fill-opacity: 1; white-space: pre; opacity: 1;">At 0mmHg</text></g><g class="xtick"><text text-anchor="middle" x="0" y="256.2" style="font-family: Arial; font-size: 16px; fill: rgb(0, 0, 0); fill-opacity: 1; white-space: pre; opacity: 1;" transform="translate(355.5,0)">At 40mmHg</text></g><g class="xtick"><text text-anchor="middle" x="0" y="256.2" style="font-family: Arial; font-size: 16px; fill: rgb(0, 0, 0); fill-opacity: 1; white-space: pre; opacity: 1;" transform="translate(516.5,0)">At 80mmHg</text></g><g class="xtick"><text text-anchor="middle" x="0" y="256.2" style="font-family: Arial; font-size: 16px; fill: rgb(0, 0, 0); fill-opacity: 1; white-space: pre; opacity: 1;" transform="translate(677.5,0)">At 120mmHg</text></g><g class="xtick"><text text-anchor="middle" x="0" y="256.2" style="font-family: Arial; font-size: 16px; fill: rgb(0, 0, 0); fill-opacity: 1; white-space: pre; opacity: 1;" transform="translate(838.5,0)">At 160mmHg</text></g><g class="xtick"><text text-anchor="middle" x="0" y="256.2" style="font-family: Arial; font-size: 16px; fill: rgb(0, 0, 0); fill-opacity: 1; white-space: pre; opacity: 1;" transform="translate(999.5,0)">At 200mmHg</text></g></g><g class="yaxislayer-above"><path class="ytick ticks crisp" d="M112,0h-5" transform="translate(0,230)" style="stroke: rgb(68, 68, 68); stroke-opacity: 1; stroke-width: 2px;"/><path class="ytick ticks crisp" d="M112,0h-5" transform="translate(0,219.5)" style="stroke: rgb(68, 68, 68); stroke-opacity: 1; stroke-width: 2px;"/><path class="ytick ticks crisp" d="M112,0h-5" transform="translate(0,209)" style="stroke: rgb(68, 68, 68); stroke-opacity: 1; stroke-width: 2px;"/><path class="ytick ticks crisp" d="M112,0h-5" transform="translate(0,198.5)" style="stroke: rgb(68, 68, 68); stroke-opacity: 1; stroke-width: 2px;"/><path class="ytick ticks crisp" d="M112,0h-5" transform="translate(0,188)" style="stroke: rgb(68, 68, 68); stroke-opacity: 1; stroke-width: 2px;"/><path class="ytick ticks crisp" d="M112,0h-5" transform="translate(0,177.5)" style="stroke: rgb(68, 68, 68); stroke-opacity: 1; stroke-width: 2px;"/><path class="ytick ticks crisp" d="M112,0h-5" transform="translate(0,167)" style="stroke: rgb(68, 68, 68); stroke-opacity: 1; stroke-width: 2px;"/><path class="ytick ticks crisp" d="M112,0h-5" transform="translate(0,156.5)" style="stroke: rgb(68, 68, 68); stroke-opacity: 1; stroke-width: 2px;"/><path class="ytick ticks crisp" d="M112,0h-5" transform="translate(0,146)" style="stroke: rgb(68, 68, 68); stroke-opacity: 1; stroke-width: 2px;"/><path class="ytick ticks crisp" d="M112,0h-5" transform="translate(0,135.5)" style="stroke: rgb(68, 68, 68); stroke-opacity: 1; stroke-width: 2px;"/><path class="ytick ticks crisp" d="M112,0h-5" transform="translate(0,125)" style="stroke: rgb(68, 68, 68); stroke-opacity: 1; stroke-width: 2px;"/><path class="ytick ticks crisp" d="M112,0h-5" transform="translate(0,114.5)" style="stroke: rgb(68, 68, 68); stroke-opacity: 1; stroke-width: 2px;"/><path class="ytick ticks crisp" d="M112,0h-5" transform="translate(0,104)" style="stroke: rgb(68, 68, 68); stroke-opacity: 1; stroke-width: 2px;"/><path class="ytick ticks crisp" d="M112,0h-5" transform="translate(0,93.5)" style="stroke: rgb(68, 68, 68); stroke-opacity: 1; stroke-width: 2px;"/><path class="ytick ticks crisp" d="M112,0h-5" transform="translate(0,83)" style="stroke: rgb(68, 68, 68); stroke-opacity: 1; stroke-width: 2px;"/><path class="ytick ticks crisp" d="M112,0h-5" transform="translate(0,72.5)" style="stroke: rgb(68, 68, 68); stroke-opacity: 1; stroke-width: 2px;"/><path class="ytick ticks crisp" d="M112,0h-5" transform="translate(0,62)" style="stroke: rgb(68, 68, 68); stroke-opacity: 1; stroke-width: 2px;"/><path class="ytick ticks crisp" d="M112,0h-5" transform="translate(0,51.5)" style="stroke: rgb(68, 68, 68); stroke-opacity: 1; stroke-width: 2px;"/><path class="ytick ticks crisp" d="M112,0h-5" transform="translate(0,41)" style="stroke: rgb(68, 68, 68); stroke-opacity: 1; stroke-width: 2px;"/><path class="ytick ticks crisp" d="M112,0h-5" transform="translate(0,30.5)" style="stroke: rgb(68, 68, 68); stroke-opacity: 1; stroke-width: 2px;"/><path class="ytick ticks crisp" d="M112,0h-5" transform="translate(0,20)" style="stroke: rgb(68, 68, 68); stroke-opacity: 1; stroke-width: 2px;"/><g class="ytick"><text text-anchor="end" x="103.8" y="5.6" transform="translate(0,230)" style="font-family: Arial; font-size: 16px; fill: rgb(0, 0, 0); fill-opacity: 1; white-space: pre; opacity: 1;">0%</text></g><g class="ytick"><text text-anchor="end" x="103.8" y="5.6" style="font-family: Arial; font-size: 16px; fill: rgb(0, 0, 0); fill-opacity: 1; white-space: pre; opacity: 1;" transform="translate(0,219.5)"> </text></g><g class="ytick"><text text-anchor="end" x="103.8" y="5.6" style="font-family: Arial; font-size: 16px; fill: rgb(0, 0, 0); fill-opacity: 1; white-space: pre; opacity: 1;" transform="translate(0,209)"> </text></g><g class="ytick"><text text-anchor="end" x="103.8" y="5.6" style="font-family: Arial; font-size: 16px; fill: rgb(0, 0, 0); fill-opacity: 1; white-space: pre; opacity: 1;" transform="translate(0,198.5)"> </text></g><g class="ytick"><text text-anchor="end" x="103.8" y="5.6" style="font-family: Arial; font-size: 16px; fill: rgb(0, 0, 0); fill-opacity: 1; white-space: pre; opacity: 1;" transform="translate(0,188)">20%</text></g><g class="ytick"><text text-anchor="end" x="103.8" y="5.6" style="font-family: Arial; font-size: 16px; fill: rgb(0, 0, 0); fill-opacity: 1; white-space: pre; opacity: 1;" transform="translate(0,177.5)"> </text></g><g class="ytick"><text text-anchor="end" x="103.8" y="5.6" style="font-family: Arial; font-size: 16px; fill: rgb(0, 0, 0); fill-opacity: 1; white-space: pre; opacity: 1;" transform="translate(0,167)"> </text></g><g class="ytick"><text text-anchor="end" x="103.8" y="5.6" style="font-family: Arial; font-size: 16px; fill: rgb(0, 0, 0); fill-opacity: 1; white-space: pre; opacity: 1;" transform="translate(0,156.5)"> </text></g><g class="ytick"><text text-anchor="end" x="103.8" y="5.6" style="font-family: Arial; font-size: 16px; fill: rgb(0, 0, 0); fill-opacity: 1; white-space: pre; opacity: 1;" transform="translate(0,146)">40%</text></g><g class="ytick"><text text-anchor="end" x="103.8" y="5.6" style="font-family: Arial; font-size: 16px; fill: rgb(0, 0, 0); fill-opacity: 1; white-space: pre; opacity: 1;" transform="translate(0,135.5)"> </text></g><g class="ytick"><text text-anchor="end" x="103.8" y="5.6" style="font-family: Arial; font-size: 16px; fill: rgb(0, 0, 0); fill-opacity: 1; white-space: pre; opacity: 1;" transform="translate(0,125)"> </text></g><g class="ytick"><text text-anchor="end" x="103.8" y="5.6" style="font-family: Arial; font-size: 16px; fill: rgb(0, 0, 0); fill-opacity: 1; white-space: pre; opacity: 1;" transform="translate(0,114.5)"> </text></g><g class="ytick"><text text-anchor="end" x="103.8" y="5.6" style="font-family: Arial; font-size: 16px; fill: rgb(0, 0, 0); fill-opacity: 1; white-space: pre; opacity: 1;" transform="translate(0,104)">60%</text></g><g class="ytick"><text text-anchor="end" x="103.8" y="5.6" style="font-family: Arial; font-size: 16px; fill: rgb(0, 0, 0); fill-opacity: 1; white-space: pre; opacity: 1;" transform="translate(0,93.5)"> </text></g><g class="ytick"><text text-anchor="end" x="103.8" y="5.6" style="font-family: Arial; font-size: 16px; fill: rgb(0, 0, 0); fill-opacity: 1; white-space: pre; opacity: 1;" transform="translate(0,83)"> </text></g><g class="ytick"><text text-anchor="end" x="103.8" y="5.6" style="font-family: Arial; font-size: 16px; fill: rgb(0, 0, 0); fill-opacity: 1; white-space: pre; opacity: 1;" transform="translate(0,72.5)"> </text></g><g class="ytick"><text text-anchor="end" x="103.8" y="5.6" style="font-family: Arial; font-size: 16px; fill: rgb(0, 0, 0); fill-opacity: 1; white-space: pre; opacity: 1;" transform="translate(0,62)">80%</text></g><g class="ytick"><text text-anchor="end" x="103.8" y="5.6" style="font-family: Arial; font-size: 16px; fill: rgb(0, 0, 0); fill-opacity: 1; white-space: pre; opacity: 1;" transform="translate(0,51.5)"> </text></g><g class="ytick"><text text-anchor="end" x="103.8" y="5.6" style="font-family: Arial; font-size: 16px; fill: rgb(0, 0, 0); fill-opacity: 1; white-space: pre; opacity: 1;" transform="translate(0,41)"> </text></g><g class="ytick"><text text-anchor="end" x="103.8" y="5.6" style="font-family: Arial; font-size: 16px; fill: rgb(0, 0, 0); fill-opacity: 1; white-space: pre; opacity: 1;" transform="translate(0,30.5)"> </text></g><g class="ytick"><text text-anchor="end" x="103.8" y="5.6" style="font-family: Arial; font-size: 16px; fill: rgb(0, 0, 0); fill-opacity: 1; white-space: pre; opacity: 1;" transform="translate(0,20)">100%</text></g></g><g class="overaxes-above"/></g></g><g class="polarlayer"/><g class="smithlayer"/><g class="ternarylayer"/><g class="geolayer"/><g class="funnelarealayer"/><g class="pielayer"/><g class="iciclelayer"/><g class="treemaplayer"/><g class="sunburstlayer"/><g class="glimages"/><defs id="topdefs-9fce93"><g class="clips"/><clipPath id="legend9fce93"><rect width="138" height="107" x="2" y="2"/></clipPath></defs><g class="layer-above"><g class="imagelayer"/><g class="shapelayer"/></g><g class="infolayer"><g class="legend" pointer-events="all" transform="translate(120.28,69.5)"><rect class="bg" shape-rendering="crispEdges" width="140" height="109" x="1" y="1" style="stroke: rgb(0, 0, 0); stroke-opacity: 1; fill: rgb(255, 255, 255); fill-opacity: 1; stroke-width: 2px;"/><g class="scrollbox" transform="" clip-path="url(#legend9fce93)"><text class="legendtitletext" text-anchor="start" x="4" y="26.7" style="font-family: 'Arial Black'; font-size: 19px; fill: rgb(0, 0, 0); fill-opacity: 1; white-space: pre;">Method</text><g class="groups" transform=""><g class="traces" transform="translate(2,43.6)" style="opacity: 1;"><text class="legendtext" text-anchor="start" x="40" y="6.24" style="font-family: Arial; font-size: 16px; fill: rgb(0, 0, 0); fill-opacity: 1; white-space: pre;">Middle finger</text><g class="layers" style="opacity: 1;"><g class="legendfill"/><g class="legendlines"/><g class="legendsymbols"><g class="legendpoints"><path class="legendundefined pattern_filled" d="M6,6H-6V-6H6Z" transform="translate(20,0)" style="stroke-width: 2px; fill: url('#p9fce93-legend-aaedd4'); stroke: rgb(0, 0, 0); stroke-opacity: 1;"/></g></g></g><rect class="legendtoggle" x="0" y="-11.9" width="132.28125" height="23.8" style="fill: rgb(0, 0, 0); fill-opacity: 0;"/></g></g><g class="groups" transform=""><g class="traces" transform="translate(2,67.4)" style="opacity: 1;"><text class="legendtext" text-anchor="start" x="40" y="6.24" style="font-family: Arial; font-size: 16px; fill: rgb(0, 0, 0); fill-opacity: 1; white-space: pre;">Two fingers</text><g class="layers" style="opacity: 1;"><g class="legendfill"/><g class="legendlines"/><g class="legendsymbols"><g class="legendpoints"><path class="legendundefined pattern_filled" d="M6,6H-6V-6H6Z" transform="translate(20,0)" style="stroke-width: 2px; fill: url('#p9fce93-legend-f44df6'); stroke: rgb(0, 0, 0); stroke-opacity: 1;"/></g></g></g><rect class="legendtoggle" x="0" y="-11.9" width="132.28125" height="23.8" style="fill: rgb(0, 0, 0); fill-opacity: 0;"/></g></g><g class="groups" transform=""><g class="traces" transform="translate(2,91.2)" style="opacity: 1;"><text class="legendtext" text-anchor="start" x="40" y="6.24" style="font-family: Arial; font-size: 16px; fill: rgb(0, 0, 0); fill-opacity: 1; white-space: pre;">None</text><g class="layers" style="opacity: 1;"><g class="legendfill"/><g class="legendlines"/><g class="legendsymbols"><g class="legendpoints"><path class="legendundefined" d="M6,6H-6V-6H6Z" transform="translate(20,0)" style="stroke-width: 2px; fill: rgb(0, 0, 0); fill-opacity: 1; stroke: rgb(0, 0, 0); stroke-opacity: 1;"/></g></g></g><rect class="legendtoggle" x="0" y="-11.9" width="132.28125" height="23.8" style="fill: rgb(0, 0, 0); fill-opacity: 0;"/></g></g></g><rect class="scrollbar" rx="20" ry="3" width="0" height="0" x="0" y="0" style="fill: rgb(128, 139, 164); fill-opacity: 1;"/></g><g class="g-gtitle"><text class="gtitle" x="550" y="0" text-anchor="middle" dy="0.7em" style="font-family: Arial; font-size: 16px; fill: rgb(0, 0, 0); opacity: 1; font-weight: normal; white-space: pre;">Varying Method with Size=['M', 'None'], Material=['Nitrile', 'None']</text></g><g class="g-xtitle"><text class="xtitle" x="597" y="288.203125" text-anchor="middle" style="font-family: 'Arial Black'; font-size: 20px; fill: rgb(0, 0, 0); opacity: 1; font-weight: normal; white-space: pre;">Applied Circumferential Pressure (mmHg)</text></g><g class="g-ytitle" transform="translate(4.125,0)"><text class="ytitle" transform="rotate(-90,11.875,125)" x="11.875" y="125" text-anchor="middle" style="font-family: 'Arial Black'; font-size: 18px; fill: rgb(0, 0, 0); opacity: 1; font-weight: normal; white-space: pre;"><tspan class="line" dy="0em" x="11.875" y="125">Relative Inward Creep </tspan><tspan class="line" dy="1.3em" x="11.875" y="125"> Into Field of View (S.E.)</tspan></text></g></g></svg>